<?xml version="1.0" encoding="UTF-8" standalone="no"?>
<!DOCTYPE svg PUBLIC "-//W3C//DTD SVG 1.1//EN" "http://www.w3.org/Graphics/SVG/1.1/DTD/svg11.dtd">
<svg width="100%" height="100%" viewBox="0 0 1607 310" version="1.1" xmlns="http://www.w3.org/2000/svg" xmlns:xlink="http://www.w3.org/1999/xlink" xml:space="preserve" xmlns:serif="http://www.serif.com/" style="fill-rule:evenodd;clip-rule:evenodd;stroke-linejoin:round;stroke-miterlimit:2;">
    <g transform="matrix(1,0,0,1,0,-2548.62)">
        <g id="FullWidth" transform="matrix(1.00388,0,0,0.19375,0,2548.62)">
            <rect x="0" y="0" width="1600" height="1600" style="fill:none;"/>
            <g id="Logo" transform="matrix(1.84754,0,0,9.5727,-768.279,-5559.76)">
                <g transform="matrix(0.964506,0,0,0.964506,-12.1901,132.961)">
                    <g transform="matrix(104.898,0,0,104.898,600.284,601.418)">
                        <path d="M0.699,-0.7L0.699,-0L0.626,-0L0.626,-0.323L0.188,-0.323L0.188,-0L0.114,-0L0.114,-0.7L0.188,-0.7L0.188,-0.388L0.626,-0.388L0.626,-0.7L0.699,-0.7Z" style="fill-rule:nonzero;"/>
                    </g>
                    <g transform="matrix(104.898,0,0,104.898,685.566,601.418)">
                        <path d="M0.324,-0.058C0.357,-0.058 0.387,-0.064 0.414,-0.076C0.442,-0.087 0.466,-0.104 0.485,-0.127L0.525,-0.081C0.502,-0.053 0.473,-0.032 0.438,-0.017C0.403,-0.002 0.365,0.005 0.323,0.005C0.269,0.005 0.221,-0.007 0.179,-0.029C0.137,-0.053 0.104,-0.084 0.081,-0.125C0.058,-0.166 0.046,-0.212 0.046,-0.263C0.046,-0.314 0.057,-0.36 0.08,-0.401C0.102,-0.442 0.133,-0.473 0.172,-0.496C0.211,-0.519 0.256,-0.53 0.306,-0.53C0.353,-0.53 0.395,-0.519 0.433,-0.498C0.47,-0.477 0.5,-0.447 0.523,-0.409C0.545,-0.371 0.557,-0.328 0.558,-0.279L0.126,-0.195C0.139,-0.152 0.164,-0.119 0.199,-0.095C0.234,-0.07 0.275,-0.058 0.324,-0.058ZM0.306,-0.469C0.269,-0.469 0.236,-0.461 0.207,-0.444C0.179,-0.427 0.156,-0.403 0.14,-0.373C0.123,-0.342 0.115,-0.307 0.115,-0.268C0.115,-0.258 0.115,-0.251 0.116,-0.246L0.487,-0.318C0.479,-0.362 0.459,-0.398 0.426,-0.427C0.393,-0.455 0.353,-0.469 0.306,-0.469Z" style="fill-rule:nonzero;"/>
                    </g>
                    <g transform="matrix(104.898,0,0,104.898,748.924,601.418)">
                        <path d="M0.167,-0.423C0.184,-0.458 0.209,-0.485 0.242,-0.503C0.275,-0.521 0.315,-0.53 0.364,-0.53L0.364,-0.461L0.347,-0.462C0.292,-0.462 0.248,-0.445 0.217,-0.411C0.186,-0.377 0.17,-0.329 0.17,-0.268L0.17,-0L0.099,-0L0.099,-0.526L0.167,-0.526L0.167,-0.423Z" style="fill-rule:nonzero;"/>
                    </g>
                    <g transform="matrix(104.898,0,0,104.898,790.149,601.418)">
                        <path d="M0.755,-0.53C0.821,-0.53 0.873,-0.511 0.911,-0.473C0.948,-0.435 0.967,-0.379 0.967,-0.305L0.967,-0L0.896,-0L0.896,-0.298C0.896,-0.353 0.883,-0.394 0.857,-0.423C0.83,-0.452 0.793,-0.466 0.745,-0.466C0.69,-0.466 0.647,-0.449 0.616,-0.416C0.585,-0.382 0.569,-0.335 0.569,-0.276L0.569,-0L0.498,-0L0.498,-0.298C0.498,-0.353 0.485,-0.394 0.459,-0.423C0.432,-0.452 0.395,-0.466 0.346,-0.466C0.292,-0.466 0.249,-0.449 0.218,-0.416C0.186,-0.382 0.17,-0.335 0.17,-0.276L0.17,-0L0.099,-0L0.099,-0.526L0.167,-0.526L0.167,-0.43C0.186,-0.462 0.212,-0.487 0.245,-0.504C0.278,-0.521 0.317,-0.53 0.36,-0.53C0.404,-0.53 0.442,-0.521 0.474,-0.502C0.507,-0.483 0.531,-0.456 0.547,-0.419C0.566,-0.454 0.594,-0.481 0.63,-0.5C0.667,-0.52 0.708,-0.53 0.755,-0.53Z" style="fill-rule:nonzero;"/>
                    </g>
                    <g transform="matrix(104.898,0,0,104.898,901.656,601.418)">
                        <path d="M0.324,-0.058C0.357,-0.058 0.387,-0.064 0.414,-0.076C0.442,-0.087 0.466,-0.104 0.485,-0.127L0.525,-0.081C0.502,-0.053 0.473,-0.032 0.438,-0.017C0.403,-0.002 0.365,0.005 0.323,0.005C0.269,0.005 0.221,-0.007 0.179,-0.029C0.137,-0.053 0.104,-0.084 0.081,-0.125C0.058,-0.166 0.046,-0.212 0.046,-0.263C0.046,-0.314 0.057,-0.36 0.08,-0.401C0.102,-0.442 0.133,-0.473 0.172,-0.496C0.211,-0.519 0.256,-0.53 0.306,-0.53C0.353,-0.53 0.395,-0.519 0.433,-0.498C0.47,-0.477 0.5,-0.447 0.523,-0.409C0.545,-0.371 0.557,-0.328 0.558,-0.279L0.126,-0.195C0.139,-0.152 0.164,-0.119 0.199,-0.095C0.234,-0.07 0.275,-0.058 0.324,-0.058ZM0.306,-0.469C0.269,-0.469 0.236,-0.461 0.207,-0.444C0.179,-0.427 0.156,-0.403 0.14,-0.373C0.123,-0.342 0.115,-0.307 0.115,-0.268C0.115,-0.258 0.115,-0.251 0.116,-0.246L0.487,-0.318C0.479,-0.362 0.459,-0.398 0.426,-0.427C0.393,-0.455 0.353,-0.469 0.306,-0.469Z" style="fill-rule:nonzero;"/>
                    </g>
                    <g transform="matrix(104.898,0,0,104.898,965.014,601.418)">
                        <path d="M0.24,0.005C0.197,0.005 0.157,-0.001 0.117,-0.014C0.079,-0.026 0.048,-0.041 0.026,-0.06L0.058,-0.116C0.08,-0.099 0.108,-0.085 0.141,-0.074C0.174,-0.063 0.209,-0.057 0.245,-0.057C0.293,-0.057 0.329,-0.065 0.352,-0.08C0.375,-0.095 0.386,-0.116 0.386,-0.143C0.386,-0.162 0.38,-0.178 0.367,-0.189C0.354,-0.2 0.338,-0.208 0.319,-0.214C0.3,-0.219 0.274,-0.225 0.242,-0.23C0.199,-0.238 0.165,-0.246 0.139,-0.255C0.113,-0.263 0.091,-0.277 0.073,-0.297C0.054,-0.317 0.045,-0.345 0.045,-0.38C0.045,-0.424 0.063,-0.46 0.1,-0.488C0.137,-0.516 0.188,-0.53 0.253,-0.53C0.287,-0.53 0.321,-0.526 0.355,-0.517C0.389,-0.507 0.417,-0.496 0.439,-0.481L0.408,-0.424C0.365,-0.454 0.313,-0.469 0.253,-0.469C0.208,-0.469 0.173,-0.461 0.151,-0.445C0.128,-0.429 0.116,-0.408 0.116,-0.382C0.116,-0.362 0.123,-0.346 0.136,-0.334C0.149,-0.322 0.165,-0.313 0.184,-0.308C0.203,-0.302 0.23,-0.296 0.264,-0.29C0.306,-0.282 0.34,-0.274 0.365,-0.266C0.39,-0.258 0.412,-0.244 0.43,-0.225C0.448,-0.206 0.457,-0.179 0.457,-0.145C0.457,-0.099 0.438,-0.063 0.4,-0.035C0.361,-0.009 0.308,0.005 0.24,0.005Z" style="fill-rule:nonzero;"/>
                    </g>
                    <g transform="matrix(104.898,0,0,104.898,1016.31,601.418)">
                        <path d="M0.422,-0.706C0.506,-0.706 0.572,-0.681 0.62,-0.631C0.667,-0.581 0.691,-0.51 0.691,-0.417L0.691,-0L0.617,-0L0.617,-0.415C0.617,-0.489 0.599,-0.545 0.562,-0.583C0.525,-0.621 0.474,-0.64 0.408,-0.64C0.339,-0.64 0.285,-0.62 0.246,-0.58C0.207,-0.539 0.188,-0.479 0.188,-0.398L0.188,-0L0.114,-0L0.114,-0.7L0.185,-0.7L0.185,-0.582C0.23,-0.665 0.309,-0.706 0.422,-0.706Z" style="fill:rgb(87,158,101);fill-rule:nonzero;"/>
                    </g>
                    <g transform="matrix(104.898,0,0,104.898,1100.12,601.418)">
                        <path d="M0.314,0.005C0.263,0.005 0.218,-0.007 0.177,-0.029C0.136,-0.053 0.104,-0.084 0.081,-0.125C0.058,-0.166 0.046,-0.212 0.046,-0.263C0.046,-0.314 0.058,-0.36 0.081,-0.401C0.104,-0.442 0.136,-0.473 0.177,-0.496C0.218,-0.519 0.263,-0.53 0.314,-0.53C0.365,-0.53 0.41,-0.519 0.451,-0.496C0.492,-0.473 0.524,-0.442 0.547,-0.401C0.57,-0.36 0.581,-0.314 0.581,-0.263C0.581,-0.212 0.57,-0.166 0.547,-0.125C0.524,-0.084 0.492,-0.053 0.451,-0.029C0.41,-0.007 0.365,0.005 0.314,0.005ZM0.314,-0.058C0.351,-0.058 0.385,-0.067 0.414,-0.084C0.444,-0.101 0.467,-0.125 0.484,-0.156C0.501,-0.187 0.509,-0.223 0.509,-0.263C0.509,-0.303 0.501,-0.339 0.484,-0.37C0.467,-0.401 0.444,-0.426 0.414,-0.443C0.385,-0.46 0.351,-0.468 0.314,-0.468C0.277,-0.468 0.243,-0.46 0.214,-0.443C0.184,-0.426 0.161,-0.401 0.143,-0.37C0.127,-0.339 0.118,-0.303 0.118,-0.263C0.118,-0.223 0.127,-0.187 0.143,-0.156C0.161,-0.125 0.184,-0.101 0.214,-0.084C0.243,-0.067 0.277,-0.058 0.314,-0.058Z" style="fill:rgb(87,158,101);fill-rule:nonzero;"/>
                    </g>
                    <g transform="matrix(104.898,0,0,104.898,1165.89,601.418)">
                        <path d="M0.358,-0.032C0.345,-0.02 0.328,-0.011 0.309,-0.005C0.29,0.002 0.269,0.005 0.248,0.005C0.199,0.005 0.161,-0.008 0.134,-0.035C0.107,-0.062 0.094,-0.099 0.094,-0.148L0.094,-0.641L0.165,-0.641L0.165,-0.526L0.324,-0.526L0.324,-0.466L0.165,-0.466L0.165,-0.152C0.165,-0.121 0.173,-0.097 0.188,-0.081C0.203,-0.064 0.226,-0.056 0.255,-0.056C0.287,-0.056 0.313,-0.065 0.333,-0.083L0.358,-0.032Z" style="fill:rgb(87,158,101);fill-rule:nonzero;"/>
                    </g>
                    <g transform="matrix(104.898,0,0,104.898,1204.6,601.418)">
                        <path d="M0.324,-0.058C0.357,-0.058 0.387,-0.064 0.414,-0.076C0.442,-0.087 0.466,-0.104 0.485,-0.127L0.525,-0.081C0.502,-0.053 0.473,-0.032 0.438,-0.017C0.403,-0.002 0.365,0.005 0.323,0.005C0.269,0.005 0.221,-0.007 0.179,-0.029C0.137,-0.053 0.104,-0.084 0.081,-0.125C0.058,-0.166 0.046,-0.212 0.046,-0.263C0.046,-0.314 0.057,-0.36 0.08,-0.401C0.102,-0.442 0.133,-0.473 0.172,-0.496C0.211,-0.519 0.256,-0.53 0.306,-0.53C0.353,-0.53 0.395,-0.519 0.433,-0.498C0.47,-0.477 0.5,-0.447 0.523,-0.409C0.545,-0.371 0.557,-0.328 0.558,-0.279L0.126,-0.195C0.139,-0.152 0.164,-0.119 0.199,-0.095C0.234,-0.07 0.275,-0.058 0.324,-0.058ZM0.306,-0.469C0.269,-0.469 0.236,-0.461 0.207,-0.444C0.179,-0.427 0.156,-0.403 0.14,-0.373C0.123,-0.342 0.115,-0.307 0.115,-0.268C0.115,-0.258 0.115,-0.251 0.116,-0.246L0.487,-0.318C0.479,-0.362 0.459,-0.398 0.426,-0.427C0.393,-0.455 0.353,-0.469 0.306,-0.469Z" style="fill:rgb(87,158,101);fill-rule:nonzero;"/>
                    </g>
                    <g transform="matrix(104.898,0,0,104.898,1267.96,601.418)">
                        <path d="M0.24,0.005C0.197,0.005 0.157,-0.001 0.117,-0.014C0.079,-0.026 0.048,-0.041 0.026,-0.06L0.058,-0.116C0.08,-0.099 0.108,-0.085 0.141,-0.074C0.174,-0.063 0.209,-0.057 0.245,-0.057C0.293,-0.057 0.329,-0.065 0.352,-0.08C0.375,-0.095 0.386,-0.116 0.386,-0.143C0.386,-0.162 0.38,-0.178 0.367,-0.189C0.354,-0.2 0.338,-0.208 0.319,-0.214C0.3,-0.219 0.274,-0.225 0.242,-0.23C0.199,-0.238 0.165,-0.246 0.139,-0.255C0.113,-0.263 0.091,-0.277 0.073,-0.297C0.054,-0.317 0.045,-0.345 0.045,-0.38C0.045,-0.424 0.063,-0.46 0.1,-0.488C0.137,-0.516 0.188,-0.53 0.253,-0.53C0.287,-0.53 0.321,-0.526 0.355,-0.517C0.389,-0.507 0.417,-0.496 0.439,-0.481L0.408,-0.424C0.365,-0.454 0.313,-0.469 0.253,-0.469C0.208,-0.469 0.173,-0.461 0.151,-0.445C0.128,-0.429 0.116,-0.408 0.116,-0.382C0.116,-0.362 0.123,-0.346 0.136,-0.334C0.149,-0.322 0.165,-0.313 0.184,-0.308C0.203,-0.302 0.23,-0.296 0.264,-0.29C0.306,-0.282 0.34,-0.274 0.365,-0.266C0.39,-0.258 0.412,-0.244 0.43,-0.225C0.448,-0.206 0.457,-0.179 0.457,-0.145C0.457,-0.099 0.438,-0.063 0.4,-0.035C0.361,-0.009 0.308,0.005 0.24,0.005Z" style="fill:rgb(87,158,101);fill-rule:nonzero;"/>
                    </g>
                </g>
                <g transform="matrix(-0.360065,0,0,0.28538,797.554,435.233)">
                    <path d="M716.355,921.332L755.241,889.53C772.932,871.51 822.376,819.384 838.602,800C853.28,782.463 869.674,756.486 881.509,737.012C892.555,718.836 909.885,689.121 918.272,669.496C930.597,640.657 941.281,611.144 952.931,582.025C958.289,568.632 964.136,555.434 969.295,541.963C970.59,538.579 971.185,534.965 972.273,531.509C972.428,531.017 974.49,523.714 976.745,527.426C981.308,534.938 980.683,544.132 981.768,552.449C983.194,563.385 985.139,574.251 986.508,585.195C989.642,610.243 993.878,636.793 988.632,662.018C979.421,706.306 953.592,745.117 925.771,779.891C904.113,806.963 879.852,831.988 850.923,851.389C833.178,863.29 783.089,892.211 764.159,902.083C753.1,907.85 741.713,912.977 730.3,918.007C727.141,919.4 723.775,920.264 720.492,921.329C719.757,921.568 717.092,922.51 716.355,921.332Z" style="fill:rgb(87,158,101);"/>
                    <g transform="matrix(0.733504,0.264298,-0.231268,0.641838,379.439,183.2)">
                        <path d="M719.528,907.686C754.603,875.285 792.506,844.779 822.351,807.096C866.066,751.901 900.808,690.561 932.975,628.14C952.381,590.48 972.558,552.661 985.322,512.055C1003.34,551.441 997.37,596.189 991.309,637.513C985.42,677.666 978.038,718.693 958.419,754.783C937.137,793.934 905.065,825.974 870.57,853.585C840.971,877.278 807.449,897.596 769.809,905.159C758.869,907.357 747.723,908.467 736.606,909.439C732.601,909.789 728.568,909.259 724.551,909.116C723.27,909.071 720.417,909.108 719.528,907.686Z" style="fill:rgb(87,158,101);"/>
                    </g>
                    <g transform="matrix(0.621897,0.224083,-0.0759253,0.210715,337.799,634.705)">
                        <path d="M667.221,922.835C680.812,910.28 699.102,904.666 715.211,896.504C733.273,887.352 750.084,875.515 765.023,861.866C781.406,846.897 799.093,825.108 811.49,809.155C842.155,769.695 867.921,726.749 892.481,683.332C927.608,621.236 961.646,557.578 982.51,489.024C996.713,529.245 997.63,572.148 993.619,614.21C987.633,676.977 971.322,740.606 943.663,797.386C928.482,828.551 912.197,859.313 889.583,885.803C882.169,894.487 874.411,902.885 866.373,910.995C860.818,916.6 854.921,921.873 848.844,926.906C807.537,961.114 737.831,990.376 690.988,949.701C680.292,940.412 674.768,934.91 667.221,922.835Z" style="fill:rgb(87,158,101);"/>
                    </g>
                    <g transform="matrix(0.375905,0.254422,-0.0793888,0.117296,501.472,724.102)">
                        <path d="M658.325,834.677C674.502,819.734 695.099,841.534 707.902,848.473C727.674,859.189 750.233,857.396 769.949,847.748C807.348,829.446 827.631,787.796 847.201,753.651C896.969,666.815 946.998,579.888 983.686,486.473C999.321,534.477 997.984,586.09 991.532,635.581C979.891,724.87 945.027,811.019 895.948,886.185C888.955,896.895 882.015,907.673 874.226,917.819C845.746,954.918 802.459,997.787 750.818,983.402C744.965,981.772 739.312,979.32 734.003,976.367C696.787,955.669 680.633,908.834 669.189,870.813C665.606,858.906 665.111,845.534 658.325,834.677Z" style="fill:rgb(87,158,101);"/>
                    </g>
                    <g transform="matrix(0.0533187,0.205635,-0.121539,0.0315137,758.516,866.619)">
                        <path d="M539.47,952.96C565.57,928.85 599.381,915.95 626.756,893.583C691.441,840.732 749.935,780.591 803.404,716.51C842.104,670.13 874.877,619.224 908.988,569.512C913.638,562.736 921.09,551.593 927.402,546.127C930.807,543.178 935.949,542.587 938.362,546.79C940.189,600.057 936.998,653.724 925.542,705.879C918.309,738.806 910.176,772.36 894.313,802.427C881.554,826.609 861.59,845.795 842.386,864.76C811.878,894.889 778.408,921.76 741.205,943.203C693.289,970.822 634.032,980.392 579.963,968.639C564.208,965.215 560.475,963.067 545.678,956.858C543.748,956.048 540.686,954.907 539.47,952.96Z" style="fill:rgb(87,158,101);"/>
                    </g>
                </g>
            </g>
        </g>
    </g>
</svg>
