<svg xmlns="http://www.w3.org/2000/svg" xml:space="preserve" style="fill-rule:evenodd;clip-rule:evenodd;stroke-linejoin:round;stroke-miterlimit:2" viewBox="0 0 1600 1600"><path d="M0 0h1600v1600H0z" style="fill:none"/><path d="M.699-.7V0H.626v-.323H.188V0H.114v-.7h.074v.312h.438V-.7h.073Z" style="fill-rule:nonzero" transform="matrix(187.63566 0 0 187.63566 276.903 890.26)"/><path d="M.324-.058a.22.22 0 0 0 .09-.018.173.173 0 0 0 .071-.051l.04.046a.224.224 0 0 1-.087.064.288.288 0 0 1-.115.022.306.306 0 0 1-.144-.034.251.251 0 0 1-.098-.096.277.277 0 0 1-.035-.138c0-.051.011-.097.034-.138a.24.24 0 0 1 .092-.095.26.26 0 0 1 .134-.034.248.248 0 0 1 .252.251l-.432.084a.182.182 0 0 0 .073.1.208.208 0 0 0 .125.037ZM.306-.469a.192.192 0 0 0-.099.025.183.183 0 0 0-.067.071.214.214 0 0 0-.024.127l.371-.072a.18.18 0 0 0-.181-.151Z" style="fill-rule:nonzero" transform="matrix(187.63566 0 0 187.63566 429.45 890.26)"/><path d="M.167-.423a.176.176 0 0 1 .075-.08.25.25 0 0 1 .122-.027v.069L.347-.462a.168.168 0 0 0-.13.051.205.205 0 0 0-.047.143V0H.099v-.526h.068v.103Z" style="fill-rule:nonzero" transform="matrix(187.63566 0 0 187.63566 542.782 890.26)"/><path d="M.755-.53a.21.21 0 0 1 .156.057c.037.038.056.094.056.168V0H.896v-.298c0-.055-.013-.096-.039-.125a.145.145 0 0 0-.112-.043.169.169 0 0 0-.129.05.2.2 0 0 0-.047.14V0H.498v-.298c0-.055-.013-.096-.039-.125C.432-.452.395-.466.346-.466a.168.168 0 0 0-.128.05.197.197 0 0 0-.048.14V0H.099v-.526h.068v.096a.192.192 0 0 1 .078-.074A.25.25 0 0 1 .36-.53a.22.22 0 0 1 .114.028.17.17 0 0 1 .073.083A.197.197 0 0 1 .63-.5a.257.257 0 0 1 .125-.03Z" style="fill-rule:nonzero" transform="matrix(187.63566 0 0 187.63566 616.523 890.26)"/><path d="M.324-.058a.22.22 0 0 0 .09-.018.173.173 0 0 0 .071-.051l.04.046a.224.224 0 0 1-.087.064.288.288 0 0 1-.115.022.306.306 0 0 1-.144-.034.251.251 0 0 1-.098-.096.277.277 0 0 1-.035-.138c0-.051.011-.097.034-.138a.24.24 0 0 1 .092-.095.26.26 0 0 1 .134-.034.248.248 0 0 1 .252.251l-.432.084a.182.182 0 0 0 .073.1.208.208 0 0 0 .125.037ZM.306-.469a.192.192 0 0 0-.099.025.183.183 0 0 0-.067.071.214.214 0 0 0-.024.127l.371-.072a.18.18 0 0 0-.181-.151Z" style="fill-rule:nonzero" transform="matrix(187.63566 0 0 187.63566 815.98 890.26)"/><path d="M.24.005a.39.39 0 0 1-.123-.019.258.258 0 0 1-.091-.046l.032-.056a.329.329 0 0 0 .187.059.2.2 0 0 0 .107-.023.07.07 0 0 0 .034-.063.058.058 0 0 0-.019-.046.137.137 0 0 0-.048-.025.769.769 0 0 0-.077-.016.743.743 0 0 1-.103-.025.144.144 0 0 1-.066-.042.116.116 0 0 1-.028-.083A.13.13 0 0 1 .1-.488.248.248 0 0 1 .253-.53c.034 0 .068.004.102.013.034.01.062.021.084.036l-.031.057a.265.265 0 0 0-.155-.045.176.176 0 0 0-.102.024.074.074 0 0 0-.035.063c0 .02.007.036.02.048a.112.112 0 0 0 .048.026.67.67 0 0 0 .08.018.902.902 0 0 1 .101.024.153.153 0 0 1 .065.041.112.112 0 0 1 .027.08.13.13 0 0 1-.057.11.284.284 0 0 1-.16.04Z" style="fill-rule:nonzero" transform="matrix(187.63566 0 0 187.63566 929.312 890.26)"/><path d="M.422-.706c.084 0 .15.025.198.075.047.05.071.121.071.214V0H.617v-.415c0-.074-.018-.13-.055-.168A.204.204 0 0 0 .408-.64a.216.216 0 0 0-.162.06c-.039.041-.058.101-.058.182V0H.114v-.7h.071v.118C.23-.665.309-.706.422-.706Z" style="fill:#579e65;fill-rule:nonzero" transform="matrix(187.63566 0 0 187.63566 1021.067 890.26)"/><path d="M.314.005a.284.284 0 0 1-.137-.034.253.253 0 0 1-.096-.096.277.277 0 0 1-.035-.138c0-.051.012-.097.035-.138a.244.244 0 0 1 .096-.095.273.273 0 0 1 .137-.034c.051 0 .096.011.137.034a.244.244 0 0 1 .096.095.277.277 0 0 1 .034.138.277.277 0 0 1-.034.138.253.253 0 0 1-.096.096.284.284 0 0 1-.137.034Zm0-.063a.196.196 0 0 0 .1-.026.18.18 0 0 0 .07-.072.22.22 0 0 0 .025-.107.22.22 0 0 0-.025-.107.182.182 0 0 0-.17-.098.195.195 0 0 0-.1.025.192.192 0 0 0-.071.073.231.231 0 0 0-.025.107c0 .04.009.076.025.107a.189.189 0 0 0 .071.072.196.196 0 0 0 .1.026Z" style="fill:#579e65;fill-rule:nonzero" transform="matrix(187.63566 0 0 187.63566 1170.982 890.26)"/><path d="M.358-.032a.177.177 0 0 1-.11.037c-.049 0-.087-.013-.114-.04-.027-.027-.04-.064-.04-.113v-.493h.071v.115h.159v.06H.165v.314c0 .031.008.055.023.071.015.017.038.025.067.025a.112.112 0 0 0 .078-.027l.025.051Z" style="fill:#579e65;fill-rule:nonzero" transform="matrix(187.63566 0 0 187.63566 1288.627 890.26)"/><path d="M.324-.058a.22.22 0 0 0 .09-.018.173.173 0 0 0 .071-.051l.04.046a.224.224 0 0 1-.087.064.288.288 0 0 1-.115.022.306.306 0 0 1-.144-.034.251.251 0 0 1-.098-.096.277.277 0 0 1-.035-.138c0-.051.011-.097.034-.138a.24.24 0 0 1 .092-.095.26.26 0 0 1 .134-.034.248.248 0 0 1 .252.251l-.432.084a.182.182 0 0 0 .073.1.208.208 0 0 0 .125.037ZM.306-.469a.192.192 0 0 0-.099.025.183.183 0 0 0-.067.071.214.214 0 0 0-.024.127l.371-.072a.18.18 0 0 0-.181-.151Z" style="fill:#579e65;fill-rule:nonzero" transform="matrix(187.63566 0 0 187.63566 1357.87 890.26)"/><path d="M.24.005a.39.39 0 0 1-.123-.019.258.258 0 0 1-.091-.046l.032-.056a.329.329 0 0 0 .187.059.2.2 0 0 0 .107-.023.07.07 0 0 0 .034-.063.058.058 0 0 0-.019-.046.137.137 0 0 0-.048-.025.769.769 0 0 0-.077-.016.743.743 0 0 1-.103-.025.144.144 0 0 1-.066-.042.116.116 0 0 1-.028-.083A.13.13 0 0 1 .1-.488.248.248 0 0 1 .253-.53c.034 0 .068.004.102.013.034.01.062.021.084.036l-.031.057a.265.265 0 0 0-.155-.045.176.176 0 0 0-.102.024.074.074 0 0 0-.035.063c0 .02.007.036.02.048a.112.112 0 0 0 .048.026.67.67 0 0 0 .08.018.902.902 0 0 1 .101.024.153.153 0 0 1 .065.041.112.112 0 0 1 .027.08.13.13 0 0 1-.057.11.284.284 0 0 1-.16.04Z" style="fill:#579e65;fill-rule:nonzero" transform="matrix(187.63566 0 0 187.63566 1471.204 890.26)"/><path d="m716.355 921.332 38.886-31.802c17.691-18.02 67.135-70.146 83.361-89.53 14.678-17.537 31.072-43.514 42.907-62.988 11.046-18.176 28.376-47.891 36.763-67.516 12.325-28.839 23.009-58.352 34.659-87.471 5.358-13.393 11.205-26.591 16.364-40.062 1.295-3.384 1.89-6.998 2.978-10.454.155-.492 2.217-7.795 4.472-4.083 4.563 7.512 3.938 16.706 5.023 25.023 1.426 10.936 3.371 21.802 4.74 32.746 3.134 25.048 7.37 51.598 2.124 76.823-9.211 44.288-35.04 83.099-62.861 117.873-21.658 27.072-45.919 52.097-74.848 71.498-17.745 11.901-67.834 40.822-86.764 50.694-11.059 5.767-22.446 10.894-33.859 15.924-3.159 1.393-6.525 2.257-9.808 3.322-.735.239-3.4 1.181-4.137.003Z" style="fill:#579e65" transform="matrix(-.66777 0 0 .52926 704.876 375.061)"/><path d="M719.528 907.686c35.075-32.401 72.978-62.907 102.823-100.59 43.715-55.195 78.457-116.535 110.624-178.956 19.406-37.66 39.583-75.479 52.347-116.085 18.018 39.386 12.048 84.134 5.987 125.458-5.889 40.153-13.271 81.18-32.89 117.27-21.282 39.151-53.354 71.191-87.849 98.802-29.599 23.693-63.121 44.011-100.761 51.574-10.94 2.198-22.086 3.308-33.203 4.28-4.005.35-8.038-.18-12.055-.323-1.281-.045-4.134-.008-5.023-1.43Z" style="fill:#579e65" transform="matrix(-.4898 .13988 .15443 .3397 451.5 472.021)"/><path d="M667.221 922.835c13.591-12.555 31.881-18.169 47.99-26.331 18.062-9.152 34.873-20.989 49.812-34.638 16.383-14.969 34.07-36.758 46.467-52.711 30.665-39.46 56.431-82.406 80.991-125.823 35.127-62.096 69.165-125.754 90.029-194.308 14.203 40.221 15.12 83.124 11.109 125.186-5.986 62.767-22.297 126.396-49.956 183.176-15.181 31.165-31.466 61.927-54.08 88.417a461.459 461.459 0 0 1-23.21 25.192c-5.555 5.605-11.452 10.878-17.529 15.911-41.307 34.208-111.013 63.47-157.856 22.795-10.696-9.289-16.22-14.791-23.767-26.866Z" style="fill:#579e65" transform="matrix(-.41528 .1186 .0507 .11152 479.305 710.983)"/><path d="M658.325 834.677c16.177-14.943 36.774 6.857 49.577 13.796 19.772 10.716 42.331 8.923 62.047-.725 37.399-18.302 57.682-59.952 77.252-94.097 49.768-86.836 99.797-173.763 136.485-267.178 15.635 48.004 14.298 99.617 7.846 149.108-11.641 89.289-46.505 175.438-95.584 250.604-6.993 10.71-13.933 21.488-21.722 31.634-28.48 37.099-71.767 79.968-123.408 65.583-5.853-1.63-11.506-4.082-16.815-7.035-37.216-20.698-53.37-67.533-64.814-105.554-3.583-11.907-4.078-25.279-10.864-36.136Z" style="fill:#579e65" transform="matrix(-.25102 .13465 .05301 .06208 370.01 758.297)"/><path d="M539.47 952.96c26.1-24.11 59.911-37.01 87.286-59.377 64.685-52.851 123.179-112.992 176.648-177.073 38.7-46.38 71.473-97.286 105.584-146.998 4.65-6.776 12.102-17.919 18.414-23.385 3.405-2.949 8.547-3.54 10.96.663 1.827 53.267-1.364 106.934-12.82 159.089-7.233 32.927-15.366 66.481-31.229 96.548-12.759 24.182-32.723 43.368-51.927 62.333-30.508 30.129-63.978 57-101.181 78.443-47.916 27.619-107.173 37.189-161.242 25.436-15.755-3.424-19.488-5.572-34.285-11.781-1.93-.81-4.992-1.951-6.208-3.898Z" style="fill:#579e65" transform="matrix(-.0356 .10883 .08116 .01668 198.365 833.725)"/></svg>