<?xml version="1.0" standalone="no"?>
<!DOCTYPE svg PUBLIC "-//W3C//DTD SVG 20010904//EN"
 "http://www.w3.org/TR/2001/REC-SVG-20010904/DTD/svg10.dtd">
<svg version="1.0" xmlns="http://www.w3.org/2000/svg"
 width="700.000000pt" height="700.000000pt" viewBox="0 0 700.000000 700.000000"
 preserveAspectRatio="xMidYMid meet">
<metadata>
Created by potrace 1.14, written by Peter Selinger 2001-2017
</metadata>
<g transform="translate(0.000000,700.000000) scale(0.100000,-0.100000)"
fill="#000000" stroke="none">
<path d="M0 3500 l0 -3500 3500 0 3500 0 0 3500 0 3500 -3500 0 -3500 0 0
-3500z m1734 2698 c8 -13 17 -34 21 -48 8 -29 562 -1144 648 -1305 144 -268
517 -778 826 -1128 161 -183 429 -421 1121 -993 47 -39 194 -142 328 -229 134
-86 241 -160 238 -162 -16 -17 -359 99 -619 208 -226 95 -761 341 -967 444
-338 170 -653 402 -984 725 -340 333 -545 595 -682 875 -164 336 -181 528 -90
1052 13 76 34 199 46 273 30 186 46 255 66 285 20 31 29 31 48 3z m-46 -2469
c245 -224 1089 -776 1640 -1073 528 -284 807 -390 1555 -587 152 -40 274 -76
270 -80 -17 -16 -143 -50 -287 -78 -444 -87 -872 -62 -1441 84 -673 172 -1026
377 -1350 784 -262 328 -421 600 -459 784 -22 107 -21 227 2 227 2 0 34 -27
70 -61z m865 -1774 c207 -86 877 -207 1422 -256 185 -17 649 -17 790 -1 61 7
204 27 318 43 114 17 218 29 230 27 19 -3 15 -8 -28 -40 -209 -154 -587 -273
-1080 -341 -136 -18 -207 -22 -480 -22 -306 0 -327 1 -475 28 -407 72 -640
180 -753 350 -43 63 -45 164 -4 215 12 15 17 15 60 -3z m2775 -347 c-21 -119
-86 -209 -223 -311 -257 -191 -671 -302 -1120 -301 -247 1 -393 40 -470 125
-29 32 -35 47 -35 84 l0 45 188 0 c272 0 833 38 972 66 182 37 376 125 510
231 86 68 156 113 176 113 8 0 9 -15 2 -52z m132 -282 c-35 -116 -86 -201
-178 -297 -165 -174 -263 -230 -425 -245 -74 -6 -242 11 -252 26 -7 12 23 33
145 100 258 140 497 321 651 491 l74 83 3 -43 c2 -24 -6 -74 -18 -115z"/>
</g>
</svg>
