<?xml version="1.0" standalone="no"?>
<!DOCTYPE svg PUBLIC "-//W3C//DTD SVG 20010904//EN"
 "http://www.w3.org/TR/2001/REC-SVG-20010904/DTD/svg10.dtd">
<svg version="1.0" xmlns="http://www.w3.org/2000/svg"
 width="1600.000000pt" height="1600.000000pt" viewBox="0 0 1600.000000 1600.000000"
 preserveAspectRatio="xMidYMid meet">
<metadata>
Created by potrace 1.14, written by Peter Selinger 2001-2017
</metadata>
<g transform="translate(0.000000,1600.000000) scale(0.100000,-0.100000)"
fill="#000000" stroke="none">
<path d="M3997 13991 c-54 -65 -99 -200 -111 -336 -3 -38 -8 -81 -10 -95 -3
-14 -7 -49 -10 -79 -4 -30 -13 -86 -21 -125 -8 -39 -17 -87 -20 -106 -3 -19
-8 -42 -10 -50 -2 -8 -6 -31 -9 -50 -3 -19 -10 -60 -16 -90 -6 -30 -20 -107
-31 -170 -11 -63 -22 -126 -25 -140 -8 -46 -43 -264 -48 -305 -3 -22 -7 -49
-10 -60 -9 -51 -20 -127 -31 -215 -4 -36 -8 -72 -10 -80 -1 -8 -6 -53 -10
-100 -4 -47 -9 -101 -11 -120 -5 -51 -5 -389 0 -430 3 -19 7 -62 11 -95 19
-191 82 -422 187 -685 45 -113 160 -354 218 -455 13 -22 34 -60 48 -85 78
-141 368 -564 436 -636 6 -6 20 -24 31 -40 20 -28 65 -85 75 -94 3 -3 30 -34
60 -70 30 -35 65 -76 76 -90 12 -14 41 -47 64 -75 108 -127 409 -442 635 -665
120 -118 149 -146 286 -271 51 -46 97 -89 103 -94 37 -35 299 -257 336 -286
25 -19 79 -61 120 -94 205 -164 526 -389 760 -532 251 -154 675 -377 1020
-536 30 -14 100 -46 155 -72 55 -26 138 -65 185 -87 47 -22 117 -55 155 -73
143 -67 314 -145 318 -145 3 0 47 -20 98 -44 52 -24 162 -74 244 -111 83 -37
174 -78 203 -91 29 -13 55 -24 57 -24 2 0 28 -11 57 -24 69 -32 305 -133 328
-141 3 -1 16 -7 30 -13 65 -28 331 -129 470 -178 85 -31 209 -75 275 -99 126
-45 229 -77 305 -95 25 -6 54 -13 65 -16 43 -11 125 -16 125 -8 0 5 -40 34
-88 65 -266 173 -716 464 -839 545 -123 81 -192 133 -423 322 -57 47 -530 441
-550 458 -35 31 -100 85 -170 143 -41 34 -84 70 -95 79 -29 24 -235 200 -270
231 -17 14 -46 39 -65 55 -19 16 -62 52 -95 81 -84 73 -204 176 -239 206 -61
50 -334 292 -445 394 -171 156 -389 385 -591 620 -52 61 -97 112 -100 115 -3
3 -41 50 -85 104 -44 55 -106 131 -138 170 -180 220 -535 686 -744 976 -316
440 -523 766 -692 1090 -87 166 -163 320 -724 1450 -130 261 -270 540 -312
620 -172 327 -295 581 -329 677 -69 201 -104 239 -159 174z"/>
<path d="M3803 8633 c-10 -38 -10 -325 0 -393 50 -324 205 -664 508 -1109 489
-719 844 -1137 1236 -1453 148 -119 354 -260 483 -331 19 -10 49 -27 65 -37
17 -10 107 -56 200 -103 497 -247 1084 -445 1810 -612 88 -20 171 -39 185 -41
14 -3 81 -17 150 -31 69 -14 134 -27 145 -28 11 -2 35 -6 53 -9 17 -3 47 -9
65 -12 17 -3 41 -7 52 -8 11 -2 34 -6 50 -9 17 -4 48 -9 70 -12 22 -2 56 -7
75 -9 74 -11 197 -26 255 -31 33 -3 80 -8 105 -11 25 -2 63 -6 85 -9 266 -28
905 -22 1120 10 17 3 53 7 80 10 28 3 75 10 105 15 30 5 75 12 100 15 25 4
124 22 220 41 96 19 186 37 200 40 144 27 423 113 447 137 11 11 -16 21 -169
61 -101 27 -349 93 -553 148 -203 54 -431 115 -505 134 -74 20 -173 47 -220
61 -47 13 -116 34 -155 44 -158 45 -407 125 -663 213 -604 210 -1559 670
-2372 1144 -389 226 -798 477 -1150 706 -68 45 -174 113 -235 153 -60 39 -115
76 -122 82 -7 6 -14 11 -17 11 -25 0 -1031 693 -1151 792 -11 9 -69 56 -130
104 -110 88 -266 222 -359 308 -27 25 -51 46 -53 46 -1 0 -6 -12 -10 -27z"/>
<path d="M5765 4583 c-83 -172 -81 -323 6 -469 80 -133 289 -317 469 -412 25
-13 65 -35 90 -48 134 -70 374 -157 595 -214 153 -39 381 -87 505 -106 19 -2
58 -9 85 -14 28 -5 73 -12 100 -15 28 -3 61 -8 75 -10 14 -2 57 -7 95 -11 39
-3 78 -8 88 -10 130 -24 941 -24 1242 1 67 5 188 16 220 20 17 2 57 6 90 9 33
4 74 9 90 11 17 2 53 7 80 10 28 3 61 8 75 10 14 3 45 7 70 10 53 7 58 7 220
35 69 11 139 23 155 26 17 3 37 7 45 9 8 2 31 7 50 10 19 3 42 8 50 10 8 2 31
7 50 10 42 7 348 80 420 100 8 2 56 15 105 29 237 65 527 173 733 273 183 89
471 271 498 314 8 13 -137 5 -276 -16 -22 -3 -138 -20 -210 -30 -31 -4 -110
-16 -130 -20 -23 -4 -102 -16 -130 -20 -14 -2 -45 -6 -70 -10 -81 -12 -94 -14
-150 -20 -30 -3 -66 -8 -80 -10 -14 -2 -50 -7 -80 -10 -30 -3 -71 -8 -90 -10
-19 -3 -66 -7 -105 -10 -38 -3 -85 -8 -103 -10 -211 -26 -951 -27 -1357 0 -22
1 -87 5 -145 9 -58 4 -121 9 -140 11 -19 2 -71 7 -115 10 -110 9 -210 19 -295
30 -19 2 -57 7 -85 10 -27 3 -68 8 -90 11 -22 3 -105 14 -185 24 -200 26 -456
64 -703 105 -114 20 -224 37 -245 40 -20 3 -48 7 -62 10 -14 3 -50 9 -80 15
-46 7 -198 36 -300 56 -20 4 -306 67 -360 79 -8 2 -60 15 -115 30 -55 15 -107
28 -116 30 -35 7 -270 85 -358 119 -51 20 -96 36 -100 36 -4 0 -16 -17 -26
-37z"/>
<path d="M12030 3920 c-8 -5 -44 -22 -80 -39 -69 -33 -155 -94 -286 -202 -238
-197 -586 -371 -945 -473 -82 -23 -275 -63 -339 -71 -30 -3 -66 -8 -80 -10
-14 -2 -61 -7 -105 -10 -44 -3 -100 -8 -125 -10 -44 -4 -123 -10 -270 -20 -41
-3 -97 -8 -125 -10 -84 -7 -227 -17 -280 -20 -48 -2 -231 -14 -325 -20 -196
-14 -428 -20 -740 -19 -201 0 -368 -4 -371 -8 -3 -5 -7 -38 -8 -74 -6 -185
165 -333 482 -418 102 -28 128 -32 272 -51 190 -24 611 -24 811 -1 16 2 61 7
99 11 39 3 84 8 100 10 17 2 55 7 86 10 31 3 65 7 75 9 11 2 44 7 74 11 30 4
64 9 75 11 67 10 255 48 345 70 586 144 1091 397 1396 699 113 111 180 204
223 305 32 74 59 175 62 230 1 25 9 57 16 73 12 24 12 27 -4 26 -10 0 -25 -4
-33 -9z"/>
<path d="M12324 3477 c-33 -34 -84 -91 -114 -126 -71 -83 -129 -143 -210 -216
-36 -32 -83 -74 -105 -94 -22 -20 -62 -54 -90 -76 -27 -21 -54 -44 -60 -50
-16 -19 -332 -256 -435 -327 -108 -74 -261 -171 -335 -213 -115 -65 -244 -136
-395 -218 -41 -23 -81 -47 -88 -54 -7 -7 -17 -13 -20 -13 -13 0 -30 -36 -24
-47 10 -15 181 -50 292 -59 61 -5 260 -5 285 0 12 2 48 7 80 11 137 16 180 27
295 78 40 17 142 85 195 128 11 10 54 44 95 77 78 62 255 233 325 313 123 140
208 278 288 469 26 60 65 202 77 275 12 75 17 191 9 200 -3 3 -32 -23 -65 -58z"/>
</g>
</svg>
