<?xml version="1.0" encoding="UTF-8" standalone="no"?>
<svg
   width="240"
   height="240"
   viewBox="0 0 240 240"
   version="1.1"
   xml:space="preserve"
   style="clip-rule:evenodd;fill-rule:evenodd;stroke-linejoin:round;stroke-miterlimit:2"
   id="svg9"
   sodipodi:docname="logo-amber-bg.svg"
   inkscape:version="1.3.1 (9b9bdc1480, 2023-11-25, custom)"
   xmlns:inkscape="http://www.inkscape.org/namespaces/inkscape"
   xmlns:sodipodi="http://sodipodi.sourceforge.net/DTD/sodipodi-0.dtd"
   xmlns="http://www.w3.org/2000/svg"
   xmlns:svg="http://www.w3.org/2000/svg"><defs
   id="defs9" /><sodipodi:namedview
   id="namedview9"
   pagecolor="#ffffff"
   bordercolor="#000000"
   borderopacity="0.25"
   inkscape:showpageshadow="2"
   inkscape:pageopacity="0.0"
   inkscape:pagecheckerboard="0"
   inkscape:deskcolor="#d1d1d1"
   showgrid="false"
   inkscape:zoom="1.1160861"
   inkscape:cx="141.56614"
   inkscape:cy="145.15009"
   inkscape:window-width="1920"
   inkscape:window-height="1010"
   inkscape:window-x="0"
   inkscape:window-y="33"
   inkscape:window-maximized="1"
   inkscape:current-layer="svg9" />
    
<rect
   style="clip-rule:evenodd;fill:#e9ddaf;fill-rule:evenodd;stroke-linejoin:round;stroke-miterlimit:2"
   id="rect10"
   width="240"
   height="240"
   x="-240"
   y="0"
   transform="rotate(-90)" /><g
   style="clip-rule:evenodd;fill-rule:evenodd;stroke-linejoin:round;stroke-miterlimit:2"
   id="g10"
   transform="matrix(1.1804339,0,0,1.1209376,36.902607,11.844041)"><g
     transform="translate(-53.8252,-58.5148)"
     id="g9">
        <g
   transform="matrix(1.33271,0,0,1.33271,-96.1322,-733.663)"
   id="g8">
            <g
   transform="matrix(-0.330342,0,0,0.261823,439.926,456.594)"
   id="g7">
                <g
   id="g6">
                    <path
   d="m 716.355,921.332 38.886,-31.802 c 17.691,-18.02 67.135,-70.146 83.361,-89.53 14.678,-17.537 31.072,-43.514 42.907,-62.988 11.046,-18.176 28.376,-47.891 36.763,-67.516 12.325,-28.839 23.009,-58.352 34.659,-87.471 5.358,-13.393 11.205,-26.591 16.364,-40.062 1.295,-3.384 1.89,-6.998 2.978,-10.454 0.155,-0.492 2.217,-7.795 4.472,-4.083 4.563,7.512 3.938,16.706 5.023,25.023 1.426,10.936 3.371,21.802 4.74,32.746 3.134,25.048 7.37,51.598 2.124,76.823 -9.211,44.288 -35.04,83.099 -62.861,117.873 -21.658,27.072 -45.919,52.097 -74.848,71.498 -17.745,11.901 -67.834,40.822 -86.764,50.694 -11.059,5.767 -22.446,10.894 -33.859,15.924 -3.159,1.393 -6.525,2.257 -9.808,3.322 -0.735,0.239 -3.4,1.181 -4.137,0.003 z"
   style="fill:#0d0d0d"
   id="path1" />
                    <g
   transform="matrix(0.733504,0.264298,-0.231268,0.641838,379.439,183.2)"
   id="g2">
                        <path
   d="m 719.528,907.686 c 35.075,-32.401 72.978,-62.907 102.823,-100.59 43.715,-55.195 78.457,-116.535 110.624,-178.956 19.406,-37.66 39.583,-75.479 52.347,-116.085 18.018,39.386 12.048,84.134 5.987,125.458 -5.889,40.153 -13.271,81.18 -32.89,117.27 -21.282,39.151 -53.354,71.191 -87.849,98.802 -29.599,23.693 -63.121,44.011 -100.761,51.574 -10.94,2.198 -22.086,3.308 -33.203,4.28 -4.005,0.35 -8.038,-0.18 -12.055,-0.323 -1.281,-0.045 -4.134,-0.008 -5.023,-1.43 z"
   style="fill:#0d0d0d"
   id="path2" />
                    </g>
                    <g
   transform="matrix(0.621897,0.224083,-0.0759253,0.210715,337.799,634.705)"
   id="g3">
                        <path
   d="m 667.221,922.835 c 13.591,-12.555 31.881,-18.169 47.99,-26.331 18.062,-9.152 34.873,-20.989 49.812,-34.638 16.383,-14.969 34.07,-36.758 46.467,-52.711 30.665,-39.46 56.431,-82.406 80.991,-125.823 35.127,-62.096 69.165,-125.754 90.029,-194.308 14.203,40.221 15.12,83.124 11.109,125.186 -5.986,62.767 -22.297,126.396 -49.956,183.176 -15.181,31.165 -31.466,61.927 -54.08,88.417 -7.414,8.684 -15.172,17.082 -23.21,25.192 -5.555,5.605 -11.452,10.878 -17.529,15.911 -41.307,34.208 -111.013,63.47 -157.856,22.795 -10.696,-9.289 -16.22,-14.791 -23.767,-26.866 z"
   style="fill:#0d0d0d"
   id="path3" />
                    </g>
                    <g
   transform="matrix(0.375905,0.254422,-0.0793888,0.117296,501.472,724.102)"
   id="g4">
                        <path
   d="m 658.325,834.677 c 16.177,-14.943 36.774,6.857 49.577,13.796 19.772,10.716 42.331,8.923 62.047,-0.725 37.399,-18.302 57.682,-59.952 77.252,-94.097 49.768,-86.836 99.797,-173.763 136.485,-267.178 15.635,48.004 14.298,99.617 7.846,149.108 -11.641,89.289 -46.505,175.438 -95.584,250.604 -6.993,10.71 -13.933,21.488 -21.722,31.634 -28.48,37.099 -71.767,79.968 -123.408,65.583 -5.853,-1.63 -11.506,-4.082 -16.815,-7.035 -37.216,-20.698 -53.37,-67.533 -64.814,-105.554 -3.583,-11.907 -4.078,-25.279 -10.864,-36.136 z"
   style="fill:#0d0d0d"
   id="path4" />
                    </g>
                    <g
   transform="matrix(0.0533187,0.205635,-0.121539,0.0315137,758.516,866.619)"
   id="g5">
                        <path
   d="m 539.47,952.96 c 26.1,-24.11 59.911,-37.01 87.286,-59.377 64.685,-52.851 123.179,-112.992 176.648,-177.073 38.7,-46.38 71.473,-97.286 105.584,-146.998 4.65,-6.776 12.102,-17.919 18.414,-23.385 3.405,-2.949 8.547,-3.54 10.96,0.663 1.827,53.267 -1.364,106.934 -12.82,159.089 -7.233,32.927 -15.366,66.481 -31.229,96.548 -12.759,24.182 -32.723,43.368 -51.927,62.333 -30.508,30.129 -63.978,57 -101.181,78.443 -47.916,27.619 -107.173,37.189 -161.242,25.436 -15.755,-3.424 -19.488,-5.572 -34.285,-11.781 -1.93,-0.81 -4.992,-1.951 -6.208,-3.898 z"
   style="fill:#0d0d0d"
   id="path5" />
                    </g>
                </g>
            </g>
        </g>
    </g></g></svg>
