<svg xmlns="http://www.w3.org/2000/svg" xml:space="preserve" style="enable-background:new 0 0 122.88 122.88"
    viewBox="0 0 122.88 122.88">
    <path
        d="m1.63 97.99 36.55-36.55L1.63 24.89c-2.17-2.17-2.17-5.73 0-7.9L16.99 1.63c2.17-2.17 5.73-2.17 7.9 0l36.55 36.55L97.99 1.63c2.17-2.17 5.73-2.17 7.9 0l15.36 15.36c2.17 2.17 2.17 5.73 0 7.9L84.7 61.44l36.55 36.55c2.17 2.17 2.17 5.73 0 7.9l-15.36 15.36c-2.17 2.17-5.73 2.17-7.9 0L61.44 84.7l-36.55 36.55c-2.17 2.17-5.73 2.17-7.9 0L1.63 105.89c-2.17-2.17-2.17-5.73 0-7.9z"
        style="fill-rule:evenodd;clip-rule:evenodd" />
</svg>