<?xml version="1.0" encoding="UTF-8" standalone="no"?>
<!DOCTYPE svg PUBLIC "-//W3C//DTD SVG 1.1//EN" "http://www.w3.org/Graphics/SVG/1.1/DTD/svg11.dtd">
<svg width="100%" height="100%" viewBox="0 0 64 64" version="1.1" xmlns="http://www.w3.org/2000/svg" xmlns:xlink="http://www.w3.org/1999/xlink" xml:space="preserve" xmlns:serif="http://www.serif.com/" style="fill-rule:evenodd;clip-rule:evenodd;stroke-linecap:round;stroke-linejoin:round;stroke-miterlimit:1.5;">
    <g transform="matrix(1,0,0,1,0,-92.6667)">
        <g id="emoji-icon" transform="matrix(0.32,0,0,0.32,0,92.6667)">
            <rect x="0" y="0" width="200" height="200" style="fill:none;"/>
            <g transform="matrix(1.67257,0,0,1.67257,-53.9348,-67.2566)">
                <g transform="matrix(3.125,0,0,3.125,4.63276,-290.58)">
                    <circle cx="27.969" cy="124.985" r="16.143" style="fill:white;stroke:rgb(26,26,26);stroke-width:2px;"/>
                </g>
                <g transform="matrix(0.262774,5.7629,-6.96379,0.317531,925.124,-75.8695)">
                    <path d="M22.612,121.414C21.468,121.414 20.54,122.143 20.54,123.04C20.54,123.938 21.468,124.667 22.612,124.667C22.269,124.287 21.99,123.689 21.99,123.04C21.99,122.392 22.269,121.793 22.612,121.414Z" style="fill:rgb(13,13,13);"/>
                </g>
                <g transform="matrix(0.262774,5.7629,-6.96379,0.317531,959.484,-75.8695)">
                    <path d="M22.612,121.414C21.468,121.414 20.54,122.143 20.54,123.04C20.54,123.938 21.468,124.667 22.612,124.667C22.269,124.287 21.99,123.689 21.99,123.04C21.99,122.392 22.269,121.793 22.612,121.414Z" style="fill:rgb(26,26,26);"/>
                </g>
                <g transform="matrix(1.91351e-16,-3.125,3.125,1.91351e-16,-324.437,193.309)">
                    <path d="M27.683,126.414C23.583,126.414 20.254,129.487 20.254,133.271C20.254,137.056 23.583,140.128 27.683,140.128L27.683,126.414Z" style="fill:white;stroke:rgb(26,26,26);stroke-width:2px;"/>
                </g>
            </g>
            <g transform="matrix(1.67257,0,0,1.67257,-53.9348,-67.2566)">
                <g transform="matrix(3.125,0,0,3.125,4.63276,-290.58)">
                    <circle cx="27.969" cy="124.985" r="16.143" style="fill:rgb(250,232,40);stroke:rgb(26,26,26);stroke-width:2px;"/>
                </g>
                <g transform="matrix(0.262774,5.7629,-6.96379,0.317531,925.124,-75.8695)">
                    <path d="M22.612,121.414C21.468,121.414 20.54,122.143 20.54,123.04C20.54,123.938 21.468,124.667 22.612,124.667C22.269,124.287 21.99,123.689 21.99,123.04C21.99,122.392 22.269,121.793 22.612,121.414Z" style="fill:rgb(13,13,13);"/>
                </g>
                <g transform="matrix(0.262774,5.7629,-6.96379,0.317531,959.484,-75.8695)">
                    <path d="M22.612,121.414C21.468,121.414 20.54,122.143 20.54,123.04C20.54,123.938 21.468,124.667 22.612,124.667C22.269,124.287 21.99,123.689 21.99,123.04C21.99,122.392 22.269,121.793 22.612,121.414Z" style="fill:rgb(26,26,26);"/>
                </g>
                <g transform="matrix(1.91351e-16,-3.125,3.125,1.91351e-16,-324.437,193.309)">
                    <path d="M27.683,126.414C23.583,126.414 20.254,129.487 20.254,133.271C20.254,137.056 23.583,140.128 27.683,140.128L27.683,126.414Z" style="fill:white;stroke:rgb(26,26,26);stroke-width:2px;"/>
                </g>
            </g>
        </g>
    </g>
</svg>
