<?xml version="1.0" encoding="UTF-8" standalone="no"?>
<!DOCTYPE svg PUBLIC "-//W3C//DTD SVG 1.1//EN" "http://www.w3.org/Graphics/SVG/1.1/DTD/svg11.dtd">
<svg width="100%" height="100%" viewBox="0 0 64 64" version="1.1" xmlns="http://www.w3.org/2000/svg" xmlns:xlink="http://www.w3.org/1999/xlink" xml:space="preserve" xmlns:serif="http://www.serif.com/" style="fill-rule:evenodd;clip-rule:evenodd;stroke-linejoin:round;stroke-miterlimit:2;">
    <g id="eye-icon__dark" transform="matrix(0.32,0,0,0.32,0,0)">
        <rect x="0" y="0" width="200" height="200" style="fill:none;"/>
        <g transform="matrix(8.33333,0,0,8.33333,0,-9.76996e-15)">
            <path d="M15,12C15,13.654 13.654,15 12,15C10.346,15 9,13.654 9,12C9,10.346 10.346,9 12,9C13.654,9 15,10.346 15,12ZM24,11.551C24,11.551 19.748,20 12.015,20C4.835,20 0,11.551 0,11.551C0,11.551 4.446,4 12.015,4C19.709,4 24,11.551 24,11.551ZM17,12C17,9.243 14.757,7 12,7C9.243,7 7,9.243 7,12C7,14.757 9.243,17 12,17C14.757,17 17,14.757 17,12Z" style="fill:white;fill-rule:nonzero;"/>
        </g>
    </g>
</svg>
