<?xml version="1.0" encoding="UTF-8" standalone="no"?><!DOCTYPE svg PUBLIC "-//W3C//DTD SVG 1.1//EN" "http://www.w3.org/Graphics/SVG/1.1/DTD/svg11.dtd"><svg width="100%" height="100%" viewBox="0 0 65 65" version="1.1" xmlns="http://www.w3.org/2000/svg" xmlns:xlink="http://www.w3.org/1999/xlink" xml:space="preserve" xmlns:serif="http://www.serif.com/" style="fill-rule:evenodd;clip-rule:evenodd;stroke-linecap:round;stroke-linejoin:round;stroke-miterlimit:1.5;"><rect id="file-template-icon__dark" x="0.691" y="0.255" width="64" height="64" style="fill:none;"/><g><g><g id="Icon"><path d="M52.675,13.688l-8.5,-8.666l-20.128,0l0,43.082l28.628,-0l0,-34.416Z" style="fill:#3d4146;stroke:#f2f2f2;stroke-width:1.46px;"/><path d="M44.175,5.022l-0,8.666l8.5,0.187l-8.5,-8.853Z" style="fill:#3d4146;stroke:#f2f2f2;stroke-width:1.46px;"/></g><g id="Icon1" serif:id="Icon"><path d="M46.874,19.452l-8.5,-8.666l-20.128,-0l0,43.082l28.628,-0l0,-34.416Z" style="fill:#3d4146;stroke:#f2f2f2;stroke-width:1.46px;"/><path d="M38.374,10.786l-0,8.666l8.5,0.187l-8.5,-8.853Z" style="fill:#3d4146;stroke:#f2f2f2;stroke-width:1.46px;"/></g><g id="Icon2" serif:id="Icon"><path d="M41.336,25.072l-8.501,-8.666l-20.127,0l-0,43.082l28.628,-0l-0,-34.416Z" style="fill:#3d4146;stroke:#f2f2f2;stroke-width:1.46px;"/><path d="M32.835,16.406l0,8.666l8.501,0.187l-8.501,-8.853Z" style="fill:#3d4146;stroke:#f2f2f2;stroke-width:1.46px;"/></g></g></g></svg>