<?xml version="1.0" encoding="UTF-8" standalone="no"?><!DOCTYPE svg PUBLIC "-//W3C//DTD SVG 1.1//EN" "http://www.w3.org/Graphics/SVG/1.1/DTD/svg11.dtd"><svg width="100%" height="100%" viewBox="0 0 64 65" version="1.1" xmlns="http://www.w3.org/2000/svg" xmlns:xlink="http://www.w3.org/1999/xlink" xml:space="preserve" xmlns:serif="http://www.serif.com/" style="fill-rule:evenodd;clip-rule:evenodd;stroke-linecap:round;stroke-linejoin:round;stroke-miterlimit:1.5;"><rect id="file-template-icon" x="0" y="0.255" width="64" height="64" style="fill:none;"/><g><g><g id="Icon"><path d="M51.984,13.688l-8.501,-8.666l-20.127,0l-0,43.082l28.628,-0l-0,-34.416Z" style="fill:#fff;stroke:#1a1a1a;stroke-width:1.46px;"/><path d="M43.483,5.022l0,8.666l8.501,0.187l-8.501,-8.853Z" style="fill:#e6e6e6;stroke:#1a1a1a;stroke-width:1.46px;"/></g><g id="Icon1" serif:id="Icon"><path d="M46.183,19.452l-8.501,-8.666l-20.127,-0l0,43.082l28.628,-0l-0,-34.416Z" style="fill:#fff;stroke:#1a1a1a;stroke-width:1.46px;"/><path d="M37.682,10.786l0,8.666l8.501,0.187l-8.501,-8.853Z" style="fill:#e6e6e6;stroke:#1a1a1a;stroke-width:1.46px;"/></g><g id="Icon2" serif:id="Icon"><path d="M40.644,25.072l-8.5,-8.666l-20.128,0l0,43.082l28.628,-0l0,-34.416Z" style="fill:#fff;stroke:#1a1a1a;stroke-width:1.46px;"/><path d="M32.144,16.406l-0,8.666l8.5,0.187l-8.5,-8.853Z" style="fill:#e6e6e6;stroke:#1a1a1a;stroke-width:1.46px;"/></g></g></g></svg>