<?xml version="1.0" encoding="UTF-8" standalone="no"?>
<!DOCTYPE svg PUBLIC "-//W3C//DTD SVG 1.1//EN" "http://www.w3.org/Graphics/SVG/1.1/DTD/svg11.dtd">
<svg width="100%" height="100%" viewBox="0 0 48 48" version="1.1" xmlns="http://www.w3.org/2000/svg" xmlns:xlink="http://www.w3.org/1999/xlink" xml:space="preserve" xmlns:serif="http://www.serif.com/" style="fill-rule:evenodd;clip-rule:evenodd;stroke-linejoin:round;stroke-miterlimit:2;">
    <g transform="matrix(0.03,0,0,0.03,12,12)">
        <g>
            <path d="M799.836,114.426C799.836,135.604 782.598,152.842 761.42,152.842L232.793,152.842C211.615,152.842 194.377,135.604 194.377,114.426C194.377,93.249 211.615,76.011 232.793,76.011L761.584,76.011C782.762,76.175 799.836,93.249 799.836,114.426ZM761.584,266.448L232.793,266.448C211.615,266.448 194.377,283.686 194.377,304.864C194.377,326.041 211.615,343.279 232.793,343.279L761.584,343.279C782.762,343.279 800,326.041 800,304.864C799.836,283.686 782.762,266.448 761.584,266.448ZM761.584,456.885L232.793,456.885C211.615,456.885 194.377,474.123 194.377,495.301C194.377,516.479 211.615,533.716 232.793,533.716L761.584,533.716C782.762,533.716 800,516.479 800,495.301C799.836,474.123 782.762,456.885 761.584,456.885ZM761.584,647.322L232.793,647.322C211.615,647.322 194.377,664.56 194.377,685.738C194.377,706.916 211.615,724.153 232.793,724.153L761.584,724.153C782.762,724.153 800,706.916 800,685.738C799.836,664.56 782.762,647.322 761.584,647.322ZM63.862,50.564C28.566,50.564 0,79.13 0,114.426C0,149.723 28.566,178.453 63.862,178.453C99.159,178.453 127.724,149.723 127.724,114.426C127.724,79.13 99.159,50.564 63.862,50.564ZM63.862,241.001C28.566,241.001 0,269.567 0,304.864C0,340.16 28.566,368.726 63.862,368.726C99.159,368.726 127.724,340.16 127.724,304.864C127.724,269.567 99.159,241.001 63.862,241.001ZM63.862,431.439C28.566,431.439 0,460.004 0,495.301C0,530.597 28.566,559.163 63.862,559.163C99.159,559.163 127.724,530.597 127.724,495.301C127.724,460.004 99.159,431.439 63.862,431.439ZM63.862,621.711C28.566,621.711 0,650.277 0,685.574C0,720.87 28.566,749.436 63.862,749.436C99.159,749.436 127.724,720.87 127.724,685.574C127.724,650.441 99.159,621.711 63.862,621.711Z" style="fill:white;fill-rule:nonzero;"/>
        </g>
    </g>
</svg>
