<?xml version="1.0" encoding="UTF-8" standalone="no"?>
<!DOCTYPE svg PUBLIC "-//W3C//DTD SVG 1.1//EN" "http://www.w3.org/Graphics/SVG/1.1/DTD/svg11.dtd">
<svg width="100%" height="100%" viewBox="0 0 64 64" version="1.1" xmlns="http://www.w3.org/2000/svg" xmlns:xlink="http://www.w3.org/1999/xlink" xml:space="preserve" xmlns:serif="http://www.serif.com/" style="fill-rule:evenodd;clip-rule:evenodd;stroke-linejoin:round;stroke-miterlimit:2;">
    <g id="moon-icon" transform="matrix(0.32,0,0,0.32,0,0)">
        <rect x="0" y="0" width="200" height="200" style="fill:none;"/>
        <g transform="matrix(1.54543,0,0,1.54543,-49.6435,-34.3319)">
            <g transform="matrix(3.26829,0,0,3.24074,-22.7161,-5.64199)">
                <path d="M28.194,23.851C28.659,26.501 29.785,28.265 32,28.563C28.878,29.528 28.011,31.23 28.194,33.274C27.562,30.716 26.284,29.161 24.388,28.563C26.545,28.087 27.787,26.483 28.194,23.851Z" style="fill:white;"/>
            </g>
            <g transform="matrix(-4.90496,0,0,4.06115,315.74,-21.2951)">
                <path d="M46.694,12.013C39.821,12.013 34.241,18.57 34.241,26.647C34.241,34.724 39.821,41.281 46.694,41.281C44.975,37.622 43.581,32.325 43.581,26.647C43.581,20.969 44.975,15.672 46.694,12.013Z" style="fill:white;"/>
            </g>
            <g transform="matrix(1.74193,0,0,1.72725,30.9681,66.7545)">
                <path d="M28.194,23.851C28.659,26.501 29.785,28.265 32,28.563C28.878,29.528 28.011,31.23 28.194,33.274C27.562,30.716 26.284,29.161 24.388,28.563C26.545,28.087 27.787,26.483 28.194,23.851Z" style="fill:white;"/>
            </g>
            <g transform="matrix(1.12947,0,0,1.11995,111.645,0.780583)">
                <path d="M28.194,23.851C28.659,26.501 29.785,28.265 32,28.563C28.878,29.528 28.011,31.23 28.194,33.274C27.562,30.716 26.284,29.161 24.388,28.563C26.545,28.087 27.787,26.483 28.194,23.851Z" style="fill:white;"/>
            </g>
        </g>
    </g>
</svg>
