<?xml version="1.0" encoding="UTF-8" standalone="no"?><!DOCTYPE svg PUBLIC "-//W3C//DTD SVG 1.1//EN" "http://www.w3.org/Graphics/SVG/1.1/DTD/svg11.dtd"><svg width="100%" height="100%" viewBox="0 0 65 64" version="1.1" xmlns="http://www.w3.org/2000/svg" xmlns:xlink="http://www.w3.org/1999/xlink" xml:space="preserve" xmlns:serif="http://www.serif.com/" style="fill-rule:evenodd;clip-rule:evenodd;stroke-linejoin:round;stroke-miterlimit:2;"><rect id="sun-icon" x="0.691" y="0" width="64" height="64" style="fill:none;"/><g><circle cx="32.087" cy="31.148" r="16.744" style="fill:#fdfdfd;"/><path d="M25.838,0.825l8.315,11.205l-13.27,1.839l4.955,-13.044Z" style="fill:#fdfdfd;"/><path d="M1.787,20.039l13.557,-3.303l-3.468,12.941l-10.089,-9.638Z" style="fill:#fdfdfd;"/><path d="M4.653,47.892l7.251,-11.921l6.699,11.602l-13.95,0.319Z" style="fill:#fdfdfd;"/><path d="M26.205,63.175l-5.322,-12.899l13.316,1.463l-7.994,11.436Z" style="fill:#fdfdfd;"/><path d="M51.356,57.251l-11.921,-7.251l11.602,-6.698l0.319,13.949Z" style="fill:#fdfdfd;"/><path d="M63.596,31.148l-12.24,6.699l-0,-13.397l12.24,6.698Z" style="fill:#fdfdfd;"/><path d="M50.093,4.96l-0.319,13.95l-11.602,-6.698l11.921,-7.252Z" style="fill:#fdfdfd;"/></g></svg>