<?xml version="1.0" encoding="UTF-8" standalone="no"?>
<!DOCTYPE svg PUBLIC "-//W3C//DTD SVG 1.1//EN" "http://www.w3.org/Graphics/SVG/1.1/DTD/svg11.dtd">
<svg width="100%" height="100%" viewBox="0 0 1607 310" version="1.1" xmlns="http://www.w3.org/2000/svg" xmlns:xlink="http://www.w3.org/1999/xlink" xml:space="preserve" xmlns:serif="http://www.serif.com/" style="fill-rule:evenodd;clip-rule:evenodd;stroke-linejoin:round;stroke-miterlimit:2;">
    <g transform="matrix(1,0,0,1,0,-2548.62)">
        <g id="logo-l" transform="matrix(1.00388,0,0,0.19375,0,2548.62)">
            <rect x="0" y="0" width="1600" height="1600" style="fill:none;"/>
            <clipPath id="_clip1">
                <rect x="0" y="0" width="1600" height="1600"/>
            </clipPath>
            <g clip-path="url(#_clip1)">
                <g id="Logo">
                </g>
                <g transform="matrix(1.32756,0,0,6.8785,-95.7606,-3786.65)">
                    <g id="Logo1" serif:id="Logo">
                        <g>
                            <g transform="matrix(2.01082,0,0,2.01703,-931.709,-493.436)">
                                <g transform="matrix(86.3161,0,0,86.3161,600.284,601.418)">
                                    <path d="M0.08,-0L0.08,-0.7L0.175,-0.7L0.175,-0.411L0.531,-0.411L0.531,-0.7L0.626,-0.7L0.626,-0L0.531,-0L0.531,-0.321L0.175,-0.321L0.175,-0L0.08,-0Z" style="fill:rgb(53,53,53);fill-rule:nonzero;"/>
                                </g>
                                <g transform="matrix(86.3161,0,0,86.3161,660.014,601.418)">
                                    <path d="M0.296,0.01C0.238,0.01 0.19,-0.002 0.151,-0.025C0.111,-0.049 0.081,-0.081 0.061,-0.12C0.041,-0.159 0.031,-0.202 0.031,-0.249C0.031,-0.295 0.04,-0.337 0.059,-0.375C0.078,-0.412 0.105,-0.443 0.141,-0.466C0.177,-0.489 0.22,-0.5 0.271,-0.5C0.312,-0.5 0.348,-0.492 0.38,-0.476C0.412,-0.46 0.437,-0.436 0.455,-0.405C0.473,-0.374 0.482,-0.337 0.482,-0.293C0.482,-0.286 0.482,-0.278 0.481,-0.27C0.481,-0.262 0.48,-0.254 0.478,-0.245L0.123,-0.245C0.127,-0.2 0.138,-0.164 0.156,-0.139C0.173,-0.114 0.195,-0.096 0.221,-0.086C0.247,-0.075 0.276,-0.07 0.307,-0.07C0.33,-0.07 0.353,-0.072 0.378,-0.077C0.403,-0.082 0.426,-0.089 0.448,-0.099L0.46,-0.028C0.441,-0.02 0.418,-0.011 0.391,-0.003C0.363,0.006 0.332,0.01 0.296,0.01ZM0.131,-0.307L0.389,-0.307C0.389,-0.33 0.385,-0.35 0.376,-0.367C0.367,-0.384 0.354,-0.397 0.337,-0.406C0.319,-0.415 0.296,-0.42 0.269,-0.42C0.229,-0.42 0.198,-0.41 0.177,-0.39C0.155,-0.37 0.14,-0.343 0.131,-0.307Z" style="fill:rgb(53,53,53);fill-rule:nonzero;"/>
                                </g>
                                <g transform="matrix(86.3161,0,0,86.3161,704.208,601.418)">
                                    <path d="M0.061,-0L0.061,-0.49L0.135,-0.49L0.146,-0.409C0.171,-0.44 0.195,-0.463 0.218,-0.478C0.241,-0.493 0.265,-0.5 0.291,-0.5C0.299,-0.5 0.307,-0.499 0.314,-0.497L0.305,-0.398C0.301,-0.399 0.296,-0.4 0.291,-0.4C0.286,-0.401 0.281,-0.401 0.275,-0.401C0.249,-0.401 0.225,-0.395 0.203,-0.384C0.181,-0.372 0.166,-0.36 0.157,-0.346L0.157,-0L0.061,-0Z" style="fill:rgb(53,53,53);fill-rule:nonzero;"/>
                                </g>
                                <g transform="matrix(86.3161,0,0,86.3161,731.484,601.418)">
                                    <path d="M0.061,-0L0.061,-0.49L0.131,-0.49L0.149,-0.396L0.115,-0.412C0.146,-0.445 0.175,-0.468 0.204,-0.481C0.234,-0.494 0.264,-0.5 0.296,-0.5C0.32,-0.5 0.343,-0.496 0.365,-0.488C0.387,-0.48 0.407,-0.467 0.425,-0.447C0.443,-0.428 0.457,-0.401 0.468,-0.366L0.443,-0.377C0.458,-0.415 0.48,-0.445 0.51,-0.467C0.541,-0.489 0.582,-0.5 0.633,-0.5C0.674,-0.5 0.709,-0.492 0.737,-0.477C0.764,-0.462 0.786,-0.439 0.8,-0.408C0.814,-0.377 0.821,-0.337 0.821,-0.289L0.821,-0L0.731,-0L0.731,-0.288C0.731,-0.334 0.722,-0.368 0.704,-0.389C0.686,-0.409 0.657,-0.42 0.616,-0.42C0.587,-0.42 0.564,-0.416 0.547,-0.407C0.53,-0.398 0.517,-0.387 0.508,-0.373C0.499,-0.359 0.493,-0.344 0.49,-0.328C0.487,-0.312 0.486,-0.298 0.486,-0.284L0.486,-0L0.396,-0L0.396,-0.27C0.396,-0.31 0.391,-0.341 0.382,-0.363C0.372,-0.384 0.358,-0.399 0.341,-0.407C0.324,-0.416 0.304,-0.42 0.281,-0.42C0.248,-0.42 0.219,-0.413 0.193,-0.398C0.167,-0.384 0.149,-0.361 0.14,-0.329L0.151,-0.378L0.151,-0L0.061,-0Z" style="fill:rgb(53,53,53);fill-rule:nonzero;"/>
                                </g>
                                <g transform="matrix(86.3161,0,0,86.3161,807.183,601.418)">
                                    <path d="M0.296,0.01C0.238,0.01 0.19,-0.002 0.151,-0.025C0.111,-0.049 0.081,-0.081 0.061,-0.12C0.041,-0.159 0.031,-0.202 0.031,-0.249C0.031,-0.295 0.04,-0.337 0.059,-0.375C0.078,-0.412 0.105,-0.443 0.141,-0.466C0.177,-0.489 0.22,-0.5 0.271,-0.5C0.312,-0.5 0.348,-0.492 0.38,-0.476C0.412,-0.46 0.437,-0.436 0.455,-0.405C0.473,-0.374 0.482,-0.337 0.482,-0.293C0.482,-0.286 0.482,-0.278 0.481,-0.27C0.481,-0.262 0.48,-0.254 0.478,-0.245L0.123,-0.245C0.127,-0.2 0.138,-0.164 0.156,-0.139C0.173,-0.114 0.195,-0.096 0.221,-0.086C0.247,-0.075 0.276,-0.07 0.307,-0.07C0.33,-0.07 0.353,-0.072 0.378,-0.077C0.403,-0.082 0.426,-0.089 0.448,-0.099L0.46,-0.028C0.441,-0.02 0.418,-0.011 0.391,-0.003C0.363,0.006 0.332,0.01 0.296,0.01ZM0.131,-0.307L0.389,-0.307C0.389,-0.33 0.385,-0.35 0.376,-0.367C0.367,-0.384 0.354,-0.397 0.337,-0.406C0.319,-0.415 0.296,-0.42 0.269,-0.42C0.229,-0.42 0.198,-0.41 0.177,-0.39C0.155,-0.37 0.14,-0.343 0.131,-0.307Z" style="fill:rgb(53,53,53);fill-rule:nonzero;"/>
                                </g>
                                <g transform="matrix(86.3161,0,0,86.3161,851.377,601.418)">
                                    <path d="M0.2,0.01C0.157,0.01 0.121,0.005 0.092,-0.006C0.064,-0.016 0.044,-0.025 0.032,-0.033L0.043,-0.12C0.054,-0.111 0.073,-0.1 0.1,-0.088C0.127,-0.076 0.159,-0.07 0.196,-0.07C0.228,-0.07 0.252,-0.075 0.269,-0.086C0.286,-0.097 0.294,-0.112 0.294,-0.131C0.294,-0.148 0.289,-0.162 0.278,-0.172C0.267,-0.183 0.254,-0.191 0.239,-0.197C0.224,-0.203 0.209,-0.208 0.196,-0.212C0.174,-0.218 0.151,-0.226 0.127,-0.235C0.103,-0.244 0.083,-0.258 0.067,-0.276C0.05,-0.294 0.042,-0.32 0.042,-0.353C0.042,-0.378 0.048,-0.402 0.06,-0.424C0.072,-0.447 0.092,-0.465 0.118,-0.479C0.146,-0.493 0.181,-0.5 0.226,-0.5C0.259,-0.5 0.285,-0.497 0.306,-0.49C0.326,-0.483 0.344,-0.476 0.359,-0.468L0.348,-0.386C0.334,-0.398 0.317,-0.408 0.298,-0.417C0.279,-0.425 0.256,-0.429 0.228,-0.429C0.2,-0.429 0.177,-0.424 0.16,-0.413C0.142,-0.403 0.133,-0.386 0.133,-0.363C0.133,-0.34 0.142,-0.324 0.161,-0.314C0.18,-0.304 0.209,-0.294 0.247,-0.282C0.259,-0.279 0.273,-0.274 0.289,-0.268C0.305,-0.261 0.32,-0.253 0.335,-0.242C0.35,-0.231 0.362,-0.217 0.372,-0.2C0.382,-0.183 0.387,-0.162 0.387,-0.136C0.387,-0.114 0.382,-0.092 0.372,-0.07C0.361,-0.047 0.343,-0.028 0.316,-0.013C0.289,0.002 0.25,0.01 0.2,0.01Z" style="fill:rgb(53,53,53);fill-rule:nonzero;"/>
                                </g>
                                <g transform="matrix(86.3161,0,0,86.3161,885.817,601.418)">
                                    <path d="M0.08,-0L0.08,-0.7L0.183,-0.7L0.528,-0.176L0.528,-0.7L0.624,-0.7L0.624,-0L0.543,-0L0.175,-0.553L0.175,-0L0.08,-0Z" style="fill:rgb(53,53,53);fill-rule:nonzero;"/>
                                </g>
                                <g transform="matrix(86.3161,0,0,86.3161,945.376,601.418)">
                                    <path d="M0.275,0.01C0.224,0.01 0.18,-0.001 0.144,-0.024C0.108,-0.047 0.08,-0.078 0.061,-0.116C0.042,-0.155 0.032,-0.198 0.032,-0.245C0.032,-0.292 0.042,-0.335 0.061,-0.374C0.08,-0.412 0.108,-0.443 0.144,-0.466C0.18,-0.489 0.224,-0.5 0.275,-0.5C0.326,-0.5 0.37,-0.489 0.406,-0.466C0.442,-0.443 0.47,-0.412 0.489,-0.374C0.508,-0.335 0.518,-0.292 0.518,-0.245C0.518,-0.198 0.508,-0.155 0.489,-0.116C0.47,-0.078 0.442,-0.047 0.406,-0.024C0.37,-0.001 0.326,0.01 0.275,0.01ZM0.275,-0.07C0.324,-0.07 0.361,-0.085 0.387,-0.116C0.413,-0.147 0.426,-0.19 0.426,-0.245C0.426,-0.3 0.413,-0.343 0.387,-0.374C0.361,-0.405 0.324,-0.42 0.275,-0.42C0.227,-0.42 0.189,-0.405 0.163,-0.374C0.137,-0.343 0.124,-0.3 0.124,-0.245C0.124,-0.19 0.137,-0.147 0.163,-0.116C0.189,-0.085 0.227,-0.07 0.275,-0.07Z" style="fill:rgb(53,53,53);fill-rule:nonzero;"/>
                                </g>
                                <g transform="matrix(86.3161,0,0,86.3161,992.245,601.418)">
                                    <path d="M0.23,0.01C0.199,0.01 0.174,0.004 0.156,-0.007C0.137,-0.018 0.123,-0.033 0.115,-0.051C0.106,-0.069 0.102,-0.087 0.102,-0.107L0.102,-0.42L0.018,-0.42L0.026,-0.49L0.102,-0.49L0.102,-0.611L0.192,-0.62L0.192,-0.49L0.321,-0.49L0.321,-0.42L0.192,-0.42L0.192,-0.162C0.192,-0.131 0.194,-0.108 0.198,-0.094C0.201,-0.08 0.21,-0.071 0.225,-0.068C0.239,-0.064 0.263,-0.062 0.295,-0.062L0.318,-0.062L0.311,0.01L0.23,0.01Z" style="fill:rgb(53,53,53);fill-rule:nonzero;"/>
                                </g>
                                <g transform="matrix(86.3161,0,0,86.3161,1020.99,601.418)">
                                    <path d="M0.296,0.01C0.238,0.01 0.19,-0.002 0.151,-0.025C0.111,-0.049 0.081,-0.081 0.061,-0.12C0.041,-0.159 0.031,-0.202 0.031,-0.249C0.031,-0.295 0.04,-0.337 0.059,-0.375C0.078,-0.412 0.105,-0.443 0.141,-0.466C0.177,-0.489 0.22,-0.5 0.271,-0.5C0.312,-0.5 0.348,-0.492 0.38,-0.476C0.412,-0.46 0.437,-0.436 0.455,-0.405C0.473,-0.374 0.482,-0.337 0.482,-0.293C0.482,-0.286 0.482,-0.278 0.481,-0.27C0.481,-0.262 0.48,-0.254 0.478,-0.245L0.123,-0.245C0.127,-0.2 0.138,-0.164 0.156,-0.139C0.173,-0.114 0.195,-0.096 0.221,-0.086C0.247,-0.075 0.276,-0.07 0.307,-0.07C0.33,-0.07 0.353,-0.072 0.378,-0.077C0.403,-0.082 0.426,-0.089 0.448,-0.099L0.46,-0.028C0.441,-0.02 0.418,-0.011 0.391,-0.003C0.363,0.006 0.332,0.01 0.296,0.01ZM0.131,-0.307L0.389,-0.307C0.389,-0.33 0.385,-0.35 0.376,-0.367C0.367,-0.384 0.354,-0.397 0.337,-0.406C0.319,-0.415 0.296,-0.42 0.269,-0.42C0.229,-0.42 0.198,-0.41 0.177,-0.39C0.155,-0.37 0.14,-0.343 0.131,-0.307Z" style="fill:rgb(53,53,53);fill-rule:nonzero;"/>
                                </g>
                                <g transform="matrix(86.3161,0,0,86.3161,1065.18,601.418)">
                                    <path d="M0.2,0.01C0.157,0.01 0.121,0.005 0.092,-0.006C0.064,-0.016 0.044,-0.025 0.032,-0.033L0.043,-0.12C0.054,-0.111 0.073,-0.1 0.1,-0.088C0.127,-0.076 0.159,-0.07 0.196,-0.07C0.228,-0.07 0.252,-0.075 0.269,-0.086C0.286,-0.097 0.294,-0.112 0.294,-0.131C0.294,-0.148 0.289,-0.162 0.278,-0.172C0.267,-0.183 0.254,-0.191 0.239,-0.197C0.224,-0.203 0.209,-0.208 0.196,-0.212C0.174,-0.218 0.151,-0.226 0.127,-0.235C0.103,-0.244 0.083,-0.258 0.067,-0.276C0.05,-0.294 0.042,-0.32 0.042,-0.353C0.042,-0.378 0.048,-0.402 0.06,-0.424C0.072,-0.447 0.092,-0.465 0.118,-0.479C0.146,-0.493 0.181,-0.5 0.226,-0.5C0.259,-0.5 0.285,-0.497 0.306,-0.49C0.326,-0.483 0.344,-0.476 0.359,-0.468L0.348,-0.386C0.334,-0.398 0.317,-0.408 0.298,-0.417C0.279,-0.425 0.256,-0.429 0.228,-0.429C0.2,-0.429 0.177,-0.424 0.16,-0.413C0.142,-0.403 0.133,-0.386 0.133,-0.363C0.133,-0.34 0.142,-0.324 0.161,-0.314C0.18,-0.304 0.209,-0.294 0.247,-0.282C0.259,-0.279 0.273,-0.274 0.289,-0.268C0.305,-0.261 0.32,-0.253 0.335,-0.242C0.35,-0.231 0.362,-0.217 0.372,-0.2C0.382,-0.183 0.387,-0.162 0.387,-0.136C0.387,-0.114 0.382,-0.092 0.372,-0.07C0.361,-0.047 0.343,-0.028 0.316,-0.013C0.289,0.002 0.25,0.01 0.2,0.01Z" style="fill:rgb(53,53,53);fill-rule:nonzero;"/>
                                </g>
                            </g>
                            <g transform="matrix(1,0,0,1,-264.206,0)">
                                <g transform="matrix(1.01315,0,0,0.706132,93.8015,86.084)">
                                    <rect x="239.39" y="690.405" width="184" height="264" style="fill:rgb(6,182,212);"/>
                                </g>
                                <g transform="matrix(-0.330342,0,0,0.261823,704.132,456.594)">
                                    <path d="M716.355,921.332L755.241,889.53C772.932,871.51 822.376,819.384 838.602,800C853.28,782.463 869.674,756.486 881.509,737.012C892.555,718.836 909.885,689.121 918.272,669.496C930.597,640.657 941.281,611.144 952.931,582.025C958.289,568.632 964.136,555.434 969.295,541.963C970.59,538.579 971.185,534.965 972.273,531.509C972.428,531.017 974.49,523.714 976.745,527.426C981.308,534.938 980.683,544.132 981.768,552.449C983.194,563.385 985.139,574.251 986.508,585.195C989.642,610.243 993.878,636.793 988.632,662.018C979.421,706.306 953.592,745.117 925.771,779.891C904.113,806.963 879.852,831.988 850.923,851.389C833.178,863.29 783.089,892.211 764.159,902.083C753.1,907.85 741.713,912.977 730.3,918.007C727.141,919.4 723.775,920.264 720.492,921.329C719.757,921.568 717.092,922.51 716.355,921.332Z" style="fill:rgb(242,242,242);"/>
                                    <g transform="matrix(0.733504,0.264298,-0.231268,0.641838,379.439,183.2)">
                                        <path d="M719.528,907.686C754.603,875.285 792.506,844.779 822.351,807.096C866.066,751.901 900.808,690.561 932.975,628.14C952.381,590.48 972.558,552.661 985.322,512.055C1003.34,551.441 997.37,596.189 991.309,637.513C985.42,677.666 978.038,718.693 958.419,754.783C937.137,793.934 905.065,825.974 870.57,853.585C840.971,877.278 807.449,897.596 769.809,905.159C758.869,907.357 747.723,908.467 736.606,909.439C732.601,909.789 728.568,909.259 724.551,909.116C723.27,909.071 720.417,909.108 719.528,907.686Z" style="fill:rgb(242,242,242);"/>
                                    </g>
                                    <g transform="matrix(0.621897,0.224083,-0.0759253,0.210715,337.799,634.705)">
                                        <path d="M667.221,922.835C680.812,910.28 699.102,904.666 715.211,896.504C733.273,887.352 750.084,875.515 765.023,861.866C781.406,846.897 799.093,825.108 811.49,809.155C842.155,769.695 867.921,726.749 892.481,683.332C927.608,621.236 961.646,557.578 982.51,489.024C996.713,529.245 997.63,572.148 993.619,614.21C987.633,676.977 971.322,740.606 943.663,797.386C928.482,828.551 912.197,859.313 889.583,885.803C882.169,894.487 874.411,902.885 866.373,910.995C860.818,916.6 854.921,921.873 848.844,926.906C807.537,961.114 737.831,990.376 690.988,949.701C680.292,940.412 674.768,934.91 667.221,922.835Z" style="fill:rgb(242,242,242);"/>
                                    </g>
                                    <g transform="matrix(0.375905,0.254422,-0.0793888,0.117296,501.472,724.102)">
                                        <path d="M658.325,834.677C674.502,819.734 695.099,841.534 707.902,848.473C727.674,859.189 750.233,857.396 769.949,847.748C807.348,829.446 827.631,787.796 847.201,753.651C896.969,666.815 946.998,579.888 983.686,486.473C999.321,534.477 997.984,586.09 991.532,635.581C979.891,724.87 945.027,811.019 895.948,886.185C888.955,896.895 882.015,907.673 874.226,917.819C845.746,954.918 802.459,997.787 750.818,983.402C744.965,981.772 739.312,979.32 734.003,976.367C696.787,955.669 680.633,908.834 669.189,870.813C665.606,858.906 665.111,845.534 658.325,834.677Z" style="fill:rgb(242,242,242);"/>
                                    </g>
                                    <g transform="matrix(0.0533187,0.205635,-0.121539,0.0315137,758.516,866.619)">
                                        <path d="M539.47,952.96C565.57,928.85 599.381,915.95 626.756,893.583C691.441,840.732 749.935,780.591 803.404,716.51C842.104,670.13 874.877,619.224 908.988,569.512C913.638,562.736 921.09,551.593 927.402,546.127C930.807,543.178 935.949,542.587 938.362,546.79C940.189,600.057 936.998,653.724 925.542,705.879C918.309,738.806 910.176,772.36 894.313,802.427C881.554,826.609 861.59,845.795 842.386,864.76C811.878,894.889 778.408,921.76 741.205,943.203C693.289,970.822 634.032,980.392 579.963,968.639C564.208,965.215 560.475,963.067 545.678,956.858C543.748,956.048 540.686,954.907 539.47,952.96Z" style="fill:rgb(242,242,242);"/>
                                    </g>
                                </g>
                            </g>
                        </g>
                    </g>
                </g>
            </g>
        </g>
    </g>
</svg>
