<?xml version="1.0" encoding="UTF-8" standalone="no"?>
<!DOCTYPE svg PUBLIC "-//W3C//DTD SVG 1.1//EN" "http://www.w3.org/Graphics/SVG/1.1/DTD/svg11.dtd">
<svg width="100%" height="100%" viewBox="0 0 1607 310" version="1.1" xmlns="http://www.w3.org/2000/svg" xmlns:xlink="http://www.w3.org/1999/xlink" xml:space="preserve" xmlns:serif="http://www.serif.com/" style="fill-rule:evenodd;clip-rule:evenodd;stroke-linejoin:round;stroke-miterlimit:2;">
    <g transform="matrix(1,0,0,1,0,-2141.18)">
        <g id="logo-d" transform="matrix(1.00388,0,0,0.19375,0,2141.18)">
            <rect x="0" y="0" width="1600" height="1600" style="fill:none;"/>
            <clipPath id="_clip1">
                <rect x="0" y="0" width="1600" height="1600"/>
            </clipPath>
            <g clip-path="url(#_clip1)">
                <g transform="matrix(1.32756,0,0,6.8785,-95.7606,-3786.65)">
                    <g id="Logo">
                        <g>
                            <g transform="matrix(2.01082,0,0,2.01703,-931.709,-493.436)">
                                <text x="600.284px" y="601.418px" style="font-family:'Cabin-Regular', 'Cabin';font-size:86.316px;fill:white;">H<tspan x="660.014px " y="601.418px ">e</tspan>rmes<tspan x="885.817px 945.376px 992.245px 1020.99px " y="601.418px 601.418px 601.418px 601.418px ">Note</tspan>s</text>
                            </g>
                            <g transform="matrix(1,0,0,1,-264.206,0)">
                                <g transform="matrix(1.01315,0,0,0.706132,93.8015,86.084)">
                                    <rect x="239.39" y="690.405" width="184" height="264" style="fill:white;"/>
                                </g>
                                <g transform="matrix(-0.330342,0,0,0.261823,704.132,456.594)">
                                    <path d="M716.355,921.332L755.241,889.53C772.932,871.51 822.376,819.384 838.602,800C853.28,782.463 869.674,756.486 881.509,737.012C892.555,718.836 909.885,689.121 918.272,669.496C930.597,640.657 941.281,611.144 952.931,582.025C958.289,568.632 964.136,555.434 969.295,541.963C970.59,538.579 971.185,534.965 972.273,531.509C972.428,531.017 974.49,523.714 976.745,527.426C981.308,534.938 980.683,544.132 981.768,552.449C983.194,563.385 985.139,574.251 986.508,585.195C989.642,610.243 993.878,636.793 988.632,662.018C979.421,706.306 953.592,745.117 925.771,779.891C904.113,806.963 879.852,831.988 850.923,851.389C833.178,863.29 783.089,892.211 764.159,902.083C753.1,907.85 741.713,912.977 730.3,918.007C727.141,919.4 723.775,920.264 720.492,921.329C719.757,921.568 717.092,922.51 716.355,921.332Z" style="fill:rgb(13,13,13);"/>
                                    <g transform="matrix(0.733504,0.264298,-0.231268,0.641838,379.439,183.2)">
                                        <path d="M719.528,907.686C754.603,875.285 792.506,844.779 822.351,807.096C866.066,751.901 900.808,690.561 932.975,628.14C952.381,590.48 972.558,552.661 985.322,512.055C1003.34,551.441 997.37,596.189 991.309,637.513C985.42,677.666 978.038,718.693 958.419,754.783C937.137,793.934 905.065,825.974 870.57,853.585C840.971,877.278 807.449,897.596 769.809,905.159C758.869,907.357 747.723,908.467 736.606,909.439C732.601,909.789 728.568,909.259 724.551,909.116C723.27,909.071 720.417,909.108 719.528,907.686Z" style="fill:rgb(13,13,13);"/>
                                    </g>
                                    <g transform="matrix(0.621897,0.224083,-0.0759253,0.210715,337.799,634.705)">
                                        <path d="M667.221,922.835C680.812,910.28 699.102,904.666 715.211,896.504C733.273,887.352 750.084,875.515 765.023,861.866C781.406,846.897 799.093,825.108 811.49,809.155C842.155,769.695 867.921,726.749 892.481,683.332C927.608,621.236 961.646,557.578 982.51,489.024C996.713,529.245 997.63,572.148 993.619,614.21C987.633,676.977 971.322,740.606 943.663,797.386C928.482,828.551 912.197,859.313 889.583,885.803C882.169,894.487 874.411,902.885 866.373,910.995C860.818,916.6 854.921,921.873 848.844,926.906C807.537,961.114 737.831,990.376 690.988,949.701C680.292,940.412 674.768,934.91 667.221,922.835Z" style="fill:rgb(13,13,13);"/>
                                    </g>
                                    <g transform="matrix(0.375905,0.254422,-0.0793888,0.117296,501.472,724.102)">
                                        <path d="M658.325,834.677C674.502,819.734 695.099,841.534 707.902,848.473C727.674,859.189 750.233,857.396 769.949,847.748C807.348,829.446 827.631,787.796 847.201,753.651C896.969,666.815 946.998,579.888 983.686,486.473C999.321,534.477 997.984,586.09 991.532,635.581C979.891,724.87 945.027,811.019 895.948,886.185C888.955,896.895 882.015,907.673 874.226,917.819C845.746,954.918 802.459,997.787 750.818,983.402C744.965,981.772 739.312,979.32 734.003,976.367C696.787,955.669 680.633,908.834 669.189,870.813C665.606,858.906 665.111,845.534 658.325,834.677Z" style="fill:rgb(13,13,13);"/>
                                    </g>
                                    <g transform="matrix(0.0533187,0.205635,-0.121539,0.0315137,758.516,866.619)">
                                        <path d="M539.47,952.96C565.57,928.85 599.381,915.95 626.756,893.583C691.441,840.732 749.935,780.591 803.404,716.51C842.104,670.13 874.877,619.224 908.988,569.512C913.638,562.736 921.09,551.593 927.402,546.127C930.807,543.178 935.949,542.587 938.362,546.79C940.189,600.057 936.998,653.724 925.542,705.879C918.309,738.806 910.176,772.36 894.313,802.427C881.554,826.609 861.59,845.795 842.386,864.76C811.878,894.889 778.408,921.76 741.205,943.203C693.289,970.822 634.032,980.392 579.963,968.639C564.208,965.215 560.475,963.067 545.678,956.858C543.748,956.048 540.686,954.907 539.47,952.96Z" style="fill:rgb(13,13,13);"/>
                                    </g>
                                </g>
                            </g>
                        </g>
                    </g>
                </g>
            </g>
        </g>
    </g>
</svg>
