<?xml version="1.0" encoding="UTF-8" standalone="no"?>
<!DOCTYPE svg PUBLIC "-//W3C//DTD SVG 1.1//EN" "http://www.w3.org/Graphics/SVG/1.1/DTD/svg11.dtd">
<svg width="100%" height="100%" viewBox="0 0 1688 194" version="1.1" xmlns="http://www.w3.org/2000/svg" xmlns:xlink="http://www.w3.org/1999/xlink" xml:space="preserve" xmlns:serif="http://www.serif.com/" style="fill-rule:evenodd;clip-rule:evenodd;stroke-linejoin:round;stroke-miterlimit:2;">
    <g id="Logo" transform="matrix(1.04984,0,0,0.625566,0,0)">
        <rect x="0" y="0" width="1607" height="310" style="fill:none;"/>
        <clipPath id="_clip1">
            <rect x="0" y="0" width="1607" height="310"/>
        </clipPath>
        <g clip-path="url(#_clip1)">
            <g transform="matrix(0.952527,0,0,1.59855,0,-4163.62)">
                <g transform="matrix(1.05787,0,0,1.05787,-12.9039,-149.586)">
                    <g>
                        <g transform="matrix(3.34656,0,0,3.34656,807.928,2751.23)">
                            <g>
                                <path d="M33.271,-23.354C36.172,-23.354 38.448,-22.51 40.104,-20.833C41.771,-19.167 42.604,-16.698 42.604,-13.437L42.604,0L39.479,0L39.479,-13.125C39.479,-15.542 38.896,-17.38 37.729,-18.646C36.573,-19.906 34.943,-20.542 32.833,-20.542C30.417,-20.542 28.51,-19.797 27.125,-18.312C25.75,-16.823 25.063,-14.776 25.063,-12.167L25.063,0L21.938,0L21.938,-13.125C21.938,-15.542 21.354,-17.38 20.188,-18.646C19.031,-19.906 17.385,-20.542 15.25,-20.542C12.859,-20.542 10.969,-19.797 9.583,-18.312C8.193,-16.823 7.5,-14.776 7.5,-12.167L7.5,0L4.354,0L4.354,-23.167L7.354,-23.167L7.354,-18.937C8.172,-20.354 9.318,-21.443 10.792,-22.208C12.26,-22.969 13.948,-23.354 15.854,-23.354C17.797,-23.354 19.479,-22.943 20.896,-22.125C22.323,-21.302 23.396,-20.083 24.104,-18.458C24.948,-19.984 26.172,-21.177 27.771,-22.042C29.38,-22.917 31.214,-23.354 33.271,-23.354Z" style="fill:rgb(13,13,13);fill-rule:nonzero;"/>
                            </g>
                        </g>
                        <g transform="matrix(3.34656,0,0,3.34656,964.349,2751.23)">
                            <g>
                                <path d="M12.479,-23.354C15.49,-23.354 17.802,-22.594 19.417,-21.083C21.042,-19.568 21.854,-17.323 21.854,-14.354L21.854,0L18.854,0L18.854,-3.604C18.146,-2.406 17.109,-1.469 15.75,-0.792C14.385,-0.109 12.76,0.229 10.875,0.229C8.292,0.229 6.234,-0.385 4.708,-1.625C3.177,-2.859 2.417,-4.49 2.417,-6.521C2.417,-8.49 3.125,-10.073 4.542,-11.271C5.969,-12.479 8.25,-13.083 11.375,-13.083L18.729,-13.083L18.729,-14.5C18.729,-16.5 18.167,-18.021 17.042,-19.062C15.927,-20.104 14.302,-20.625 12.167,-20.625C10.693,-20.625 9.276,-20.38 7.917,-19.896C6.568,-19.406 5.417,-18.74 4.458,-17.896L3.042,-20.229C4.219,-21.229 5.63,-22 7.271,-22.542C8.906,-23.083 10.646,-23.354 12.479,-23.354ZM11.375,-2.25C13.135,-2.25 14.646,-2.651 15.896,-3.458C17.156,-4.26 18.104,-5.427 18.729,-6.958L18.729,-10.75L11.458,-10.75C7.484,-10.75 5.5,-9.365 5.5,-6.604C5.5,-5.255 6.01,-4.193 7.042,-3.417C8.068,-2.635 9.51,-2.25 11.375,-2.25Z" style="fill:rgb(13,13,13);fill-rule:nonzero;"/>
                            </g>
                        </g>
                        <g transform="matrix(3.34656,0,0,3.34656,1051.33,2751.23)">
                            <g>
                                <path d="M7.354,-18.646C8.089,-20.198 9.177,-21.375 10.625,-22.167C12.083,-22.958 13.885,-23.354 16.042,-23.354L16.042,-20.312L15.292,-20.354C12.844,-20.354 10.938,-19.604 9.563,-18.104C8.188,-16.604 7.5,-14.505 7.5,-11.812L7.5,0L4.354,0L4.354,-23.167L7.354,-23.167L7.354,-18.646Z" style="fill:rgb(13,13,13);fill-rule:nonzero;"/>
                            </g>
                        </g>
                        <g transform="matrix(3.34656,0,0,3.34656,1110.45,2751.23)">
                            <g>
                                <path d="M12.958,-11.625L7.5,-6.604L7.5,0L4.354,0L4.354,-32.687L7.5,-32.687L7.5,-10.521L21.333,-23.167L25.208,-23.167L15.292,-13.708L26.125,0L22.292,0L12.958,-11.625Z" style="fill:rgb(13,13,13);fill-rule:nonzero;"/>
                            </g>
                        </g>
                        <g transform="matrix(3.34656,0,0,3.34656,1199.05,2751.23)">
                            <g>
                                <path d="M25.521,-32.687L25.521,0L22.521,0L22.521,-4.583C21.573,-3.026 20.333,-1.833 18.792,-1C17.25,-0.177 15.505,0.229 13.563,0.229C11.396,0.229 9.427,-0.271 7.667,-1.271C5.901,-2.271 4.521,-3.667 3.521,-5.458C2.521,-7.25 2.021,-9.292 2.021,-11.583C2.021,-13.875 2.521,-15.917 3.521,-17.708C4.521,-19.5 5.901,-20.885 7.667,-21.875C9.427,-22.859 11.396,-23.354 13.563,-23.354C15.448,-23.354 17.151,-22.964 18.667,-22.187C20.177,-21.406 21.417,-20.271 22.375,-18.771L22.375,-32.687L25.521,-32.687ZM13.833,-2.562C15.443,-2.562 16.901,-2.937 18.208,-3.687C19.526,-4.437 20.563,-5.5 21.313,-6.875C22.063,-8.25 22.438,-9.818 22.438,-11.583C22.438,-13.344 22.063,-14.917 21.313,-16.292C20.563,-17.677 19.526,-18.75 18.208,-19.5C16.901,-20.25 15.443,-20.625 13.833,-20.625C12.193,-20.625 10.714,-20.25 9.396,-19.5C8.089,-18.75 7.063,-17.677 6.313,-16.292C5.573,-14.917 5.208,-13.344 5.208,-11.583C5.208,-9.818 5.573,-8.25 6.313,-6.875C7.063,-5.5 8.089,-4.437 9.396,-3.687C10.714,-2.937 12.193,-2.562 13.833,-2.562Z" style="fill:rgb(13,13,13);fill-rule:nonzero;"/>
                            </g>
                        </g>
                        <g transform="matrix(3.34656,0,0,3.34656,1299.01,2751.23)">
                            <g>
                                <path d="M13.833,0.229C11.594,0.229 9.583,-0.276 7.792,-1.292C6,-2.302 4.589,-3.708 3.563,-5.5C2.531,-7.292 2.021,-9.318 2.021,-11.583C2.021,-13.844 2.531,-15.875 3.563,-17.667C4.589,-19.458 6,-20.854 7.792,-21.854C9.583,-22.854 11.594,-23.354 13.833,-23.354C16.068,-23.354 18.083,-22.854 19.875,-21.854C21.667,-20.854 23.068,-19.458 24.083,-17.667C25.094,-15.875 25.604,-13.844 25.604,-11.583C25.604,-9.318 25.094,-7.292 24.083,-5.5C23.068,-3.708 21.667,-2.302 19.875,-1.292C18.083,-0.276 16.068,0.229 13.833,0.229ZM13.833,-2.562C15.484,-2.562 16.964,-2.937 18.271,-3.687C19.573,-4.437 20.594,-5.5 21.333,-6.875C22.068,-8.25 22.438,-9.818 22.438,-11.583C22.438,-13.344 22.068,-14.917 21.333,-16.292C20.594,-17.677 19.573,-18.75 18.271,-19.5C16.964,-20.25 15.484,-20.625 13.833,-20.625C12.193,-20.625 10.714,-20.25 9.396,-19.5C8.089,-18.75 7.063,-17.677 6.313,-16.292C5.573,-14.917 5.208,-13.344 5.208,-11.583C5.208,-9.818 5.573,-8.25 6.313,-6.875C7.063,-5.5 8.089,-4.437 9.396,-3.687C10.714,-2.937 12.193,-2.562 13.833,-2.562Z" style="fill:rgb(13,13,13);fill-rule:nonzero;"/>
                            </g>
                        </g>
                        <g transform="matrix(3.34656,0,0,3.34656,1391.45,2751.23)">
                            <g>
                                <path d="M38.375,-23.167L29.604,0L26.667,0L19.333,-19L12.021,0L9.083,0L0.354,-23.167L3.354,-23.167L10.625,-3.479L18.063,-23.167L20.75,-23.167L28.146,-3.479L35.521,-23.167L38.375,-23.167Z" style="fill:rgb(13,13,13);fill-rule:nonzero;"/>
                            </g>
                        </g>
                        <g transform="matrix(3.34656,0,0,3.34656,1521.04,2751.23)">
                            <g>
                                <path d="M16.167,-23.354C19.083,-23.354 21.396,-22.505 23.104,-20.812C24.823,-19.13 25.688,-16.672 25.688,-13.437L25.688,0L22.563,0L22.563,-13.125C22.563,-15.542 21.958,-17.38 20.75,-18.646C19.542,-19.906 17.823,-20.542 15.604,-20.542C13.104,-20.542 11.125,-19.797 9.667,-18.312C8.219,-16.823 7.5,-14.776 7.5,-12.167L7.5,0L4.354,0L4.354,-23.167L7.354,-23.167L7.354,-18.896C8.214,-20.312 9.396,-21.406 10.896,-22.187C12.406,-22.964 14.167,-23.354 16.167,-23.354Z" style="fill:rgb(13,13,13);fill-rule:nonzero;"/>
                            </g>
                        </g>
                        <g transform="matrix(3.34656,0,0,3.34656,218.661,2751.23)">
                            <g>
                                <path d="M17.583,-24.062C20.51,-24.062 22.88,-23.177 24.688,-21.417C26.505,-19.651 27.417,-17.031 27.417,-13.562L27.417,0L20.542,0L20.542,-12.521C20.542,-14.396 20.125,-15.792 19.292,-16.708C18.469,-17.635 17.281,-18.104 15.729,-18.104C13.99,-18.104 12.609,-17.568 11.583,-16.5C10.552,-15.427 10.042,-13.839 10.042,-11.729L10.042,0L3.167,0L3.167,-32.687L10.042,-32.687L10.042,-21.229C10.958,-22.146 12.063,-22.844 13.354,-23.333C14.646,-23.818 16.052,-24.062 17.583,-24.062Z" style="fill:rgb(13,13,13);fill-rule:nonzero;"/>
                            </g>
                        </g>
                        <g transform="matrix(3.34656,0,0,3.34656,320.533,2751.23)">
                            <g>
                                <path d="M26.396,-11.771C26.396,-11.672 26.354,-11.052 26.271,-9.917L8.333,-9.917C8.651,-8.443 9.406,-7.276 10.604,-6.417C11.813,-5.568 13.313,-5.146 15.104,-5.146C16.339,-5.146 17.438,-5.323 18.396,-5.687C19.354,-6.062 20.24,-6.646 21.063,-7.437L24.729,-3.479C22.49,-0.922 19.229,0.354 14.938,0.354C12.271,0.354 9.901,-0.167 7.833,-1.208C5.776,-2.25 4.193,-3.693 3.083,-5.542C1.969,-7.401 1.417,-9.505 1.417,-11.854C1.417,-14.172 1.964,-16.26 3.063,-18.125C4.156,-20 5.667,-21.458 7.583,-22.5C9.51,-23.542 11.672,-24.062 14.063,-24.062C16.38,-24.062 18.479,-23.562 20.354,-22.562C22.229,-21.562 23.698,-20.125 24.771,-18.25C25.854,-16.385 26.396,-14.229 26.396,-11.771ZM14.104,-18.854C12.547,-18.854 11.234,-18.406 10.167,-17.521C9.109,-16.646 8.469,-15.443 8.25,-13.917L19.917,-13.917C19.677,-15.417 19.031,-16.609 17.979,-17.5C16.922,-18.401 15.63,-18.854 14.104,-18.854Z" style="fill:rgb(13,13,13);fill-rule:nonzero;"/>
                            </g>
                        </g>
                        <g transform="matrix(3.34656,0,0,3.34656,413.56,2751.23)">
                            <g>
                                <path d="M9.729,-20.583C10.563,-21.719 11.672,-22.583 13.063,-23.167C14.464,-23.76 16.073,-24.062 17.896,-24.062L17.896,-17.708C17.13,-17.76 16.615,-17.792 16.354,-17.792C14.38,-17.792 12.833,-17.24 11.708,-16.146C10.594,-15.047 10.042,-13.396 10.042,-11.187L10.042,0L3.167,0L3.167,-23.708L9.729,-23.708L9.729,-20.583Z" style="fill:rgb(13,13,13);fill-rule:nonzero;"/>
                            </g>
                        </g>
                        <g transform="matrix(3.34656,0,0,3.34656,477.101,2751.23)">
                            <g>
                                <path d="M33.542,-24.062C36.5,-24.062 38.854,-23.187 40.604,-21.437C42.354,-19.687 43.229,-17.062 43.229,-13.562L43.229,0L36.354,0L36.354,-12.521C36.354,-14.396 35.964,-15.792 35.188,-16.708C34.406,-17.635 33.297,-18.104 31.854,-18.104C30.24,-18.104 28.964,-17.583 28.021,-16.542C27.073,-15.5 26.604,-13.948 26.604,-11.896L26.604,0L19.75,0L19.75,-12.521C19.75,-16.24 18.25,-18.104 15.25,-18.104C13.667,-18.104 12.401,-17.583 11.458,-16.542C10.51,-15.5 10.042,-13.948 10.042,-11.896L10.042,0L3.167,0L3.167,-23.708L9.729,-23.708L9.729,-20.979C10.615,-21.979 11.698,-22.74 12.979,-23.271C14.255,-23.797 15.656,-24.062 17.188,-24.062C18.854,-24.062 20.359,-23.729 21.708,-23.062C23.068,-22.406 24.156,-21.448 24.979,-20.187C25.948,-21.422 27.177,-22.375 28.667,-23.042C30.151,-23.719 31.776,-24.062 33.542,-24.062Z" style="fill:rgb(13,13,13);fill-rule:nonzero;"/>
                            </g>
                        </g>
                        <g transform="matrix(3.34656,0,0,3.34656,631.753,2751.23)">
                            <g>
                                <path d="M26.396,-11.771C26.396,-11.672 26.354,-11.052 26.271,-9.917L8.333,-9.917C8.651,-8.443 9.406,-7.276 10.604,-6.417C11.813,-5.568 13.313,-5.146 15.104,-5.146C16.339,-5.146 17.438,-5.323 18.396,-5.687C19.354,-6.062 20.24,-6.646 21.063,-7.437L24.729,-3.479C22.49,-0.922 19.229,0.354 14.938,0.354C12.271,0.354 9.901,-0.167 7.833,-1.208C5.776,-2.25 4.193,-3.693 3.083,-5.542C1.969,-7.401 1.417,-9.505 1.417,-11.854C1.417,-14.172 1.964,-16.26 3.063,-18.125C4.156,-20 5.667,-21.458 7.583,-22.5C9.51,-23.542 11.672,-24.062 14.063,-24.062C16.38,-24.062 18.479,-23.562 20.354,-22.562C22.229,-21.562 23.698,-20.125 24.771,-18.25C25.854,-16.385 26.396,-14.229 26.396,-11.771ZM14.104,-18.854C12.547,-18.854 11.234,-18.406 10.167,-17.521C9.109,-16.646 8.469,-15.443 8.25,-13.917L19.917,-13.917C19.677,-15.417 19.031,-16.609 17.979,-17.5C16.922,-18.401 15.63,-18.854 14.104,-18.854Z" style="fill:rgb(13,13,13);fill-rule:nonzero;"/>
                            </g>
                        </g>
                        <g transform="matrix(3.34656,0,0,3.34656,724.78,2751.23)">
                            <g>
                                <path d="M11.146,0.354C9.172,0.354 7.25,0.109 5.375,-0.375C3.5,-0.859 2,-1.469 0.875,-2.208L3.167,-7.146C4.219,-6.464 5.5,-5.906 7,-5.479C8.5,-5.062 9.969,-4.854 11.417,-4.854C14.318,-4.854 15.771,-5.568 15.771,-7C15.771,-7.677 15.375,-8.167 14.583,-8.458C13.792,-8.75 12.573,-9 10.938,-9.208C8.99,-9.5 7.385,-9.833 6.125,-10.208C4.859,-10.594 3.76,-11.276 2.833,-12.25C1.917,-13.219 1.458,-14.604 1.458,-16.396C1.458,-17.896 1.885,-19.219 2.75,-20.375C3.625,-21.542 4.885,-22.443 6.542,-23.083C8.208,-23.734 10.167,-24.062 12.417,-24.062C14.094,-24.062 15.76,-23.875 17.417,-23.5C19.083,-23.135 20.458,-22.63 21.542,-21.979L19.25,-17.104C17.167,-18.271 14.885,-18.854 12.417,-18.854C10.958,-18.854 9.859,-18.646 9.125,-18.229C8.385,-17.823 8.021,-17.297 8.021,-16.646C8.021,-15.922 8.417,-15.406 9.208,-15.104C10,-14.812 11.26,-14.531 13,-14.271C14.943,-13.948 16.526,-13.604 17.75,-13.229C18.984,-12.865 20.052,-12.198 20.958,-11.229C21.875,-10.271 22.333,-8.922 22.333,-7.187C22.333,-5.714 21.885,-4.401 21,-3.25C20.125,-2.109 18.839,-1.219 17.146,-0.583C15.464,0.042 13.464,0.354 11.146,0.354Z" style="fill:rgb(13,13,13);fill-rule:nonzero;"/>
                            </g>
                        </g>
                    </g>
                </g>
                <g transform="matrix(0.841077,0,0,0.841077,0,2609.14)">
                    <rect x="0" y="0" width="224.659" height="224.659" style="fill:rgb(13,13,13);"/>
                </g>
                <g transform="matrix(0.523161,0,0,0.523161,35.4836,1291.04)">
                    <g>
                        <g transform="matrix(3.34656,0,0,3.34656,-21.5316,1864.14)">
                            <path d="M62.365,267.74L54.839,262.917C51.411,260.188 41.839,252.286 38.698,249.349C35.859,246.693 32.682,242.755 30.391,239.807C28.255,237.052 24.901,232.547 23.276,229.573C20.891,225.203 18.823,220.734 16.568,216.318C15.531,214.292 14.396,212.292 13.401,210.25C13.146,209.734 13.031,209.188 12.823,208.667C12.792,208.589 12.391,207.484 11.958,208.047C11.073,209.182 11.193,210.578 10.984,211.839C10.708,213.495 10.333,215.141 10.068,216.802C9.458,220.594 8.641,224.62 9.656,228.443C11.438,235.151 16.438,241.036 21.823,246.302C26.016,250.406 30.714,254.198 36.313,257.141C39.75,258.943 49.448,263.323 53.109,264.823C55.25,265.693 57.453,266.474 59.667,267.234C60.276,267.443 60.927,267.578 61.563,267.74C61.703,267.776 62.224,267.917 62.365,267.74Z" style="fill:white;"/>
                        </g>
                        <g transform="matrix(3.34656,0,0,3.34656,-21.5316,1864.14)">
                            <path d="M66.052,272.984C59.62,271.24 52.875,269.792 46.948,267.318C38.271,263.703 30.594,259.125 23.229,254.344C18.786,251.458 14.229,248.589 10.599,245.151C9.802,249.703 12.656,253.818 15.365,257.594C18,261.26 20.885,264.958 25.286,267.682C30.063,270.635 36.052,272.469 42.182,273.771C47.448,274.891 53.12,275.526 58.802,274.755C60.453,274.526 62.083,274.193 63.708,273.839C64.292,273.714 64.839,273.5 65.406,273.323C65.583,273.271 65.99,273.156 66.052,272.984Z" style="fill:white;"/>
                        </g>
                        <g transform="matrix(3.34656,0,0,3.34656,-21.5316,1864.14)">
                            <path d="M68.885,276.427C67.063,276.49 64.781,276.927 62.719,277.214C60.411,277.536 58.214,277.729 56.214,277.802C54.021,277.88 51.573,277.786 49.844,277.698C45.573,277.479 41.839,276.979 38.245,276.427C33.104,275.641 28.068,274.76 24.552,273.281C23.432,275.047 23.953,276.448 25.052,277.656C26.698,279.458 29.594,280.932 33.76,281.807C36.047,282.286 38.458,282.719 41.568,282.797C42.589,282.823 43.646,282.828 44.734,282.813C45.484,282.802 46.271,282.771 47.078,282.724C52.552,282.417 61.375,280.979 66.417,278.094C67.568,277.432 68.151,277.068 68.885,276.427Z" style="fill:white;"/>
                        </g>
                        <g transform="matrix(3.34656,0,0,3.34656,-21.5316,1864.14)">
                            <path d="M68.885,278.068C67.479,278.427 66.313,279.609 65.49,280.224C64.214,281.177 62.547,282.016 60.964,282.604C57.958,283.719 55.844,283.76 53.896,283.911C48.938,284.286 43.964,284.667 39.854,284.422C39.458,285.88 40.349,286.745 41.578,287.375C43.797,288.516 47.656,288.703 52.385,288.146C53.057,288.068 53.729,287.99 54.453,287.87C57.094,287.432 60.901,286.526 64.438,284.276C64.839,284.021 65.214,283.76 65.552,283.505C67.943,281.703 68.401,280.245 68.651,279.13C68.724,278.781 68.557,278.521 68.885,278.068Z" style="fill:white;"/>
                        </g>
                        <g transform="matrix(3.34656,0,0,3.34656,-21.5316,1864.14)">
                            <path d="M71.057,280.807C70.219,281.505 69.568,282.5 68.755,283.245C66.844,285.01 64.828,286.542 62.766,287.906C61.276,288.891 59.74,289.667 58.219,290.49C58.01,290.604 57.672,290.781 57.479,290.953C57.375,291.047 57.307,291.203 57.38,291.297C58.615,291.609 59.911,291.766 61.255,291.661C62.104,291.589 62.979,291.5 63.849,291.146C64.552,290.865 65.208,290.333 65.854,289.828C66.875,289.021 67.854,288.104 68.745,287.047C69.891,285.688 70.724,283.885 71.005,282.146C71.089,281.635 71.078,281.51 71.083,281.021C71.083,280.958 71.089,280.854 71.057,280.807Z" style="fill:white;"/>
                        </g>
                    </g>
                </g>
            </g>
        </g>
    </g>
</svg>
